<svg xmlns="http://www.w3.org/2000/svg" viewBox="692.361 1118 152.98 144.627">
  <defs>
    <style>
      .cls-1 {
        fill: none;
      }

      .cls-1, .cls-3, .cls-4 {
        stroke: #2d2d2f;
        stroke-linecap: round;
        stroke-linejoin: round;
        stroke-miterlimit: 10;
        stroke-width: 3px;
      }

      .cls-2 {
        fill: #2d2d2f;
      }

      .cls-3 {
        fill: #d4b55c;
      }

      .cls-4 {
        fill: #fff;
      }
    </style>
  </defs>
  <g id="Group_216" data-name="Group 216" transform="translate(694.045 1118)">
    <g id="Group_212" data-name="Group 212">
      <g id="Group_211" data-name="Group 211" transform="translate(0.236 6.728)">
        <line id="Line_30" data-name="Line 30" class="cls-1" x1="14.047" y1="38.954" transform="translate(48.161)"/>
        <line id="Line_31" data-name="Line 31" class="cls-1" y1="38.954" x2="14.047"/>
        <path id="Path_442" data-name="Path 442" class="cls-1" d="M615.6,60.3" transform="translate(-600.432 -31.439)"/>
      </g>
      <path id="Path_443" data-name="Path 443" class="cls-1" d="M652.181,78v81.1c0,8.794-3.364,15.936-7.437,15.936H596.937c-4.073,0-7.437-7.2-7.437-15.936V78.708" transform="translate(-589.5 -31.963)"/>
      <path id="Path_444" data-name="Path 444" class="cls-2" d="M645.918,8.558H607.141A3.552,3.552,0,0,1,603.6,5.017V3.541A3.552,3.552,0,0,1,607.141,0h38.777a3.552,3.552,0,0,1,3.541,3.541V4.958A3.565,3.565,0,0,1,645.918,8.558Z" transform="translate(-595.278)"/>
      <path id="Path_445" data-name="Path 445" class="cls-1" d="M653.21,80.7s-21.248,14.165-34.232,11.568c-12.926-2.6-15.464-8.558-26.678-5.607" transform="translate(-590.647 -33.07)"/>
      <rect id="Rectangle_120" data-name="Rectangle 120" class="cls-3" width="62.326" height="32.226" transform="translate(0.236 75.075)"/>
    </g>
    <g id="Group_215" data-name="Group 215" transform="translate(35.826 58.785)">
      <path id="Path_446" data-name="Path 446" class="cls-4" d="M773.964,120.494c0-11.568-22.369-20.894-49.932-20.894S674.1,108.984,674.1,120.494a10.74,10.74,0,0,0,2.715,6.846v51.408a5.2,5.2,0,0,0,5.194,5.194h84.105a5.2,5.2,0,0,0,5.194-5.194V127.34A10.991,10.991,0,0,0,773.964,120.494Z" transform="translate(-659.994 -99.6)"/>
      <g id="Group_214" data-name="Group 214">
        <path id="Path_447" data-name="Path 447" class="cls-4" d="M750.064,120.494c0-11.568-22.369-20.894-49.932-20.894S650.2,108.984,650.2,120.494a10.74,10.74,0,0,0,2.715,6.846v51.408a5.2,5.2,0,0,0,5.194,5.194h84.046a5.2,5.2,0,0,0,5.194-5.194V127.34A10.74,10.74,0,0,0,750.064,120.494Z" transform="translate(-650.2 -99.6)"/>
        <g id="Group_213" data-name="Group 213" transform="translate(34.468 20.303)">
          <line id="Line_32" data-name="Line 32" class="cls-1" y1="32.58" x2="14.932"/>
          <line id="Line_33" data-name="Line 33" class="cls-1" y1="32.58" x2="14.991" transform="translate(15.936 11.037)"/>
        </g>
      </g>
    </g>
    <path id="Path_448" data-name="Path 448" class="cls-3" d="M693.341,149.083h0a3.552,3.552,0,0,1-3.541-3.541h0A3.552,3.552,0,0,1,693.341,142h0a3.552,3.552,0,0,1,3.541,3.541h0A3.552,3.552,0,0,1,693.341,149.083Z" transform="translate(-630.602 -58.19)"/>
    <path id="Path_449" data-name="Path 449" class="cls-3" d="M768.341,132.083h0a3.552,3.552,0,0,1-3.541-3.541h0A3.552,3.552,0,0,1,768.341,125h0a3.552,3.552,0,0,1,3.541,3.541h0A3.552,3.552,0,0,1,768.341,132.083Z" transform="translate(-661.336 -51.223)"/>
    <path id="Path_450" data-name="Path 450" class="cls-3" d="M756.341,217.083h0a3.552,3.552,0,0,1-3.541-3.541h0A3.552,3.552,0,0,1,756.341,210h0a3.552,3.552,0,0,1,3.541,3.541h0A3.552,3.552,0,0,1,756.341,217.083Z" transform="translate(-656.418 -86.055)"/>
  </g>
</svg>
