<svg xmlns="http://www.w3.org/2000/svg" viewBox="88.072 1105.5 160.351 157.046">
  <defs>
    <style>
      .cls-1 {
        fill: none;
      }

      .cls-1, .cls-2, .cls-3, .cls-4 {
        stroke: #2d2d2f;
        stroke-width: 3px;
      }

      .cls-1, .cls-2, .cls-3 {
        stroke-linecap: round;
        stroke-linejoin: round;
        stroke-miterlimit: 10;
      }

      .cls-2, .cls-4 {
        fill: #fff;
      }

      .cls-3 {
        fill: #d4b55c;
      }

      .cls-5 {
        fill: #2d2d2f;
      }
    </style>
  </defs>
  <g id="Group_222" data-name="Group 222" transform="translate(-684 -26.954)">
    <g id="Group_217" data-name="Group 217" transform="translate(805.443 1149.595)">
      <path id="Path_451" data-name="Path 451" class="cls-1" d="M389.769,45.7a10.119,10.119,0,0,0-8.971,5.312H363.682a10.213,10.213,0,1,0-14.7,13.339c.118.059.236.177.354.236V90.733a3.489,3.489,0,0,0,3.482,3.482h36.239a3.489,3.489,0,0,0,3.482-3.482V65.708a11.478,11.478,0,0,0,1.3-.472,10.252,10.252,0,0,0,6.02-9.325A10,10,0,0,0,389.769,45.7Z" transform="translate(-344.5 -38.322)"/>
      <path id="Path_452" data-name="Path 452" class="cls-2" d="M364.8,52.441a14.771,14.771,0,0,1-.3-3.246,15.995,15.995,0,0,1,31.99,0,14.272,14.272,0,0,1-.236,2.774" transform="translate(-352.696 -33.2)"/>
      <line id="Line_34" data-name="Line 34" class="cls-1" x2="43.263" transform="translate(4.899 48.22)"/>
      <line id="Line_35" data-name="Line 35" class="cls-2" y2="10.211" transform="translate(27.091 28.684)"/>
      <line id="Line_36" data-name="Line 36" class="cls-2" y2="10.211" transform="translate(36.829 28.684)"/>
      <line id="Line_37" data-name="Line 37" class="cls-2" y2="10.211" transform="translate(17.293 28.684)"/>
    </g>
    <g id="Group_219" data-name="Group 219" transform="translate(773.572 1133.954)">
      <g id="Group_218" data-name="Group 218">
        <path id="Path_453" data-name="Path 453" class="cls-1" d="M457.1,6.7h9.089a6.98,6.98,0,0,1,7.083,6.846V135.071a6.98,6.98,0,0,1-7.083,6.846H457.1" transform="translate(-358.77 -6.7)"/>
        <path id="Path_454" data-name="Path 454" class="cls-1" d="M391.722,141.918H290.5V6.7H392.9" transform="translate(-290.5 -6.7)"/>
      </g>
      <line id="Line_38" data-name="Line 38" class="cls-1" y2="133.447" transform="translate(11.096 0.885)"/>
      <path id="Path_455" data-name="Path 455" class="cls-3" d="M319,253.742V236.1l.3-.3h20.067l.3.3v18.533l-10.034-9.739h-.59L319,254.628" transform="translate(-302.179 -100.582)"/>
    </g>
    <path id="Path_456" data-name="Path 456" class="cls-2" d="M455.261,150.945l-1.712-.767a3.868,3.868,0,0,1-1.889-5.076L480.64,81.949a3.868,3.868,0,0,1,5.076-1.889l1.712.767a3.868,3.868,0,0,1,1.889,5.076l-28.979,63.153A3.817,3.817,0,0,1,455.261,150.945Z" transform="translate(417.172 1097.334)"/>
    <g id="Group_220" data-name="Group 220" transform="translate(810.873 1212.63)">
      <path id="Path_457" data-name="Path 457" class="cls-4" d="M414.811,202.115c-32.875,0-59.612-11.863-59.612-26.442a2.874,2.874,0,0,1,.059-.708v-.413c0-.118-.059-.236-.059-.354V143.507a1.99,1.99,0,0,1,2.007-2.007H472.357a1.99,1.99,0,0,1,2.007,2.007V174.2a.749.749,0,0,1-.059.354v.413c0,.236.059.472.059.708C474.423,190.252,447.686,202.115,414.811,202.115Z" transform="translate(-354.315 -140.615)"/>
      <path id="Path_458" data-name="Path 458" class="cls-5" d="M471.8,141.771a1.121,1.121,0,0,1,1.121,1.121V173.76a1.259,1.259,0,0,0,0,.472v.177c0,.236.059.413.059.649,0,6.551-5.9,12.867-16.644,17.706-11.214,5.076-26.146,7.85-42.023,7.85s-30.809-2.774-42.023-7.85c-10.742-4.84-16.644-11.155-16.644-17.706a2.645,2.645,0,0,1,.059-.649V142.892a1.121,1.121,0,0,1,1.121-1.121H471.8m0-1.771H356.592a2.9,2.9,0,0,0-2.892,2.892v30.691a1.634,1.634,0,0,0,.059.531c0,.3-.059.59-.059.944,0,15.109,27.091,27.327,60.5,27.327s60.5-12.276,60.5-27.327a5.4,5.4,0,0,0-.059-.944,1.635,1.635,0,0,0,.059-.531V142.892A2.9,2.9,0,0,0,471.8,140Z" transform="translate(-353.7 -140)"/>
    </g>
    <g id="Group_221" data-name="Group 221" transform="translate(812.408 1220.716)">
      <line id="Line_39" data-name="Line 39" class="cls-1" x2="118.043"/>
    </g>
    <path id="Path_459" data-name="Path 459" class="cls-3" d="M494.2,141.8v20.539a3.777,3.777,0,1,0,7.555,0V149.414h10.624v7.378a3.275,3.275,0,0,0,3.246,3.246h1.121a3.275,3.275,0,0,0,3.246-3.246V141.8Z" transform="translate(399.598 1071.892)"/>
    <path id="Path_460" data-name="Path 460" class="cls-1" d="M378.6,205.8c5.666,5.607,15.464,10.152,27.563,12.985" transform="translate(446.969 1045.666)"/>
  </g>
</svg>
