<?xml version="1.0" encoding="utf-8"?>
<!-- Generator: Adobe Illustrator 21.1.0, SVG Export Plug-In . SVG Version: 6.00 Build 0)  -->
<svg version="1.1" id="Layer_1" xmlns="http://www.w3.org/2000/svg" xmlns:xlink="http://www.w3.org/1999/xlink" x="0px" y="0px"
	 viewBox="0 0 69 66.5" style="enable-background:new 0 0 69 66.5;" xml:space="preserve">
<style type="text/css">
	.st0{fill:#2D2D2F;}
	.st1{font-family:'OpenSans';}
	.st2{font-size:18px;}
	.st3{letter-spacing:1;}
	.st4{fill:#D5B65C;}
</style>
<g id="Group_72" transform="translate(3762 -36)">
	<g id="Group_70" transform="translate(194 -48)">
		<text transform="matrix(1 0 0 1 -3950.668 145.5)" class="st0 st1 st2 st3">MENU</text>
	</g>
	<g id="Group_71">
		<path id="Path_240" class="st4" d="M-3755.5,36h55c1.1,0,2,0.9,2,2s-0.9,2-2,2h-55c-1.1,0-2-0.9-2-2S-3756.6,36-3755.5,36z"/>
		<path id="Path_241" class="st4" d="M-3755.5,48h55c1.1,0,2,0.9,2,2s-0.9,2-2,2h-55c-1.1,0-2-0.9-2-2S-3756.6,48-3755.5,48z"/>
		<path id="Rectangle_69" class="st4" d="M-3756,59.5h56c1.1,0,2,0.9,2,2l0,0c0,1.1-0.9,2-2,2h-56c-1.1,0-2-0.9-2-2l0,0
			C-3758,60.4-3757.1,59.5-3756,59.5z"/>
	</g>
</g>
</svg>
