<svg xmlns="http://www.w3.org/2000/svg" viewBox="36 16 200 164.878">
  <defs>
    <style>
      .cls-1 {
        fill: #2d2d2f;
      }

      .cls-1, .cls-2, .cls-3, .cls-4, .cls-5, .cls-6 {
        fill-rule: evenodd;
      }

      .cls-2 {
        fill: #d4b65d;
      }

      .cls-2, .cls-6 {
        stroke: #d4b65c;
        stroke-width: 0.5px;
      }

      .cls-3 {
        fill: #f4eee4;
      }

      .cls-4 {
        fill: #fff;
      }

      .cls-5, .cls-6 {
        fill: #d4b65c;
      }
    </style>
  </defs>
  <g id="Group_233" data-name="Group 233" transform="translate(36.214 15.615)">
    <path id="Path_525" data-name="Path 525" class="cls-1" d="M183.049,74.726c-1.78,2.9-3.2,5.9-5.138,8.75a87.4,87.4,0,0,1-7.885,9.564,34.738,34.738,0,0,1-5.647,4.222,8.173,8.173,0,0,1-3.357,1.577,4.7,4.7,0,0,1-2.187.763c-1.73-.1-3.052.967-4.833.61a8.961,8.961,0,0,1-2.289-.61,5.958,5.958,0,0,1-3.154-.254c-1.221-.356-1.831-1.73-2.8-2.391a20.449,20.449,0,0,1-1.221-3.51,33.142,33.142,0,0,1-1.068-3.663c-.1-1.628.1-3.154.1-4.782-.254-1.831.865-3.154,1.221-4.782a71.789,71.789,0,0,1,12.463-23.4,47.077,47.077,0,0,1,9.462-9.36c.763-.56,1.679-.865,2.493-1.373a7.293,7.293,0,0,1,2.849-.967c1.73-.458,3.459-.814,5.29-1.119,4.12.153,8.6.661,10.53,4.68a19.686,19.686,0,0,1,1.221,6.969,2.423,2.423,0,0,1-.458,1.475,6.674,6.674,0,0,1-.2,2.645,60.684,60.684,0,0,1-2.645,9.92,19.842,19.842,0,0,0-1.017,2.391Z" transform="translate(-70.579 -21.428)"/>
    <path id="Path_526" data-name="Path 526" class="cls-2" d="M184.187,47.814c.458.61,1.628.661,1.424,1.679-.56,1.831.153,3.764,0,5.7l-.1,1.933c-.305.967-.1,2.187-.61,3l-.305-.1L183.169,58.8c-1.373-2.035-3.256-4.324-5.748-4.731-2.289-.56-4.527.407-6.562,1.221-.712.305-1.323,1.17-2.187.967a2.68,2.68,0,0,0-1.424-1.272,1.525,1.525,0,0,0-1.17.1c-.712.509-.661,1.373-.712,2.137.051.56.61,1.068.305,1.679a54.274,54.274,0,0,0-6.664,7.834,46.415,46.415,0,0,0-5.087,8.851,35.36,35.36,0,0,0-3.2,13.277,1.151,1.151,0,0,1-.509.763c-.509.051-1.017.153-1.221.661a1.662,1.662,0,0,0,.305,1.73,1.71,1.71,0,0,0,1.475.407c.61,0,1.373-.814,1.882-.051.56.712,1.424,1.017,1.984,1.73-.1,1.017-1.221,1.78-1.119,2.95a2.015,2.015,0,0,0,1.17,1.526c2.086.967,3.459-1.221,4.884-2.289,3-1.831,6.308-3.612,8.8-6.155A39.306,39.306,0,0,0,173.5,84.8c.153-.254.509-.61.763-.56-.305.763-1.119,1.221-1.526,1.984-.763,1.323-2.187,2.086-2.544,3.561.051.509.56.61.916.763a2.15,2.15,0,0,0,2.289-1.119c.1-.56.61-.763.967-1.221a45.8,45.8,0,0,0,4.426-6.359c1.73-2.9,3.256-5.9,4.68-8.9.763-1.73,1.73-3.459,1.78-5.443.967-1.017,1.068-2.442,1.475-3.663a54.625,54.625,0,0,1,1.373-5.7l.051-.051c.2.61-.1,1.373.051,2.035a42.432,42.432,0,0,1-1.475,8.8,11.5,11.5,0,0,1-1.119,2.238,53.983,53.983,0,0,1-4.477,8.241c-1.424,2.594-3.1,4.985-4.68,7.478a27.312,27.312,0,0,1-6,6.562c-.2.051-.305-.1-.356-.254a6.827,6.827,0,0,0-.051-2.035c-.254-.254-.61-.1-.865,0A63.914,63.914,0,0,1,158.9,98.277a10.917,10.917,0,0,1-4.934,1.628,5.334,5.334,0,0,1-2.493-1.628c-1.424-.763-2.95-2.035-3.154-3.764l-.661-2.747c-.254-4.273.763-8.394,1.78-12.311,1.374-5.291,4.375-9.92,7.274-14.447,3.866-5.748,8.394-11.853,14.447-15.566,1.577-1.17,3.561-1.475,5.392-2.086.916-.1,1.78-.305,2.7-.356C180.829,47.356,182.61,47.356,184.187,47.814Z" transform="translate(-72.632 -22.902)"/>
    <path id="Path_527" data-name="Path 527" class="cls-1" d="M21.057,1.1c5.341,1.221,10.225,3.815,15.261,6,.56.56,1.424.509,2.086.814.967.407,2.187,1.221,3.307.56,1.628-.2,3.1-.763,4.731-.967a11.869,11.869,0,0,1,2.7-.356,30.37,30.37,0,0,1,8.037,0c.967.1,1.78.407,2.7.56,2.544.865,5.341,2.238,6.817,4.731,1.119,2.238,2.34,4.375,2.289,7.071.1,1.119-.254,2.086-.2,3.154a12.75,12.75,0,0,0-.814,2.34L66.84,27.507c.305.458-.1.814-.407.967A4.747,4.747,0,0,0,64.5,30.152c-.61.763-1.424,1.221-2.086,1.933l-2.7,2.187a82.03,82.03,0,0,1-8.139,4.884c-1.679.916-3.307,2.137-4.884,3.154a37.775,37.775,0,0,0-4.68,3.866,17.248,17.248,0,0,0-1.882,2.544c-.1.763-.305,1.831.254,2.442,1.373,1.068,1.831,2.645,2.594,4.019.509.254,1.017-.1,1.526-.2A7.966,7.966,0,0,1,52.749,56.6a6.931,6.931,0,0,1,1.882,6.562,8.279,8.279,0,0,1-4.985,5.647c-.967.407-2.035.56-3,.865-.763.763-.509,1.933-.763,2.9a13.478,13.478,0,0,1-1.221,3.2c-.56.61-.967,1.475-1.73,1.933-2.442,1.068-5.087.1-7.274-.865-1.068-.305-1.882-1.119-2.95-1.475-.305-.2-.712-.56-1.119-.458a3.081,3.081,0,0,0,.56,1.475,59.464,59.464,0,0,0,3.815,5.545c.305.509.916.967.712,1.577-.407.509-1.017.661-1.424,1.119.407.2.814-.051,1.272-.1,1.831-.56,4.222-.61,5.647.763,1.882,1.526,2.493,3.815,3.052,6.054.356,1.119.153,2.289.56,3.357.1.1.2.153.305.1,1.068-1.119,1.221-2.594,1.73-4.019a23.8,23.8,0,0,1,2.8-6.766,4.986,4.986,0,0,1,3.307-2.493c2.238-.61,4.07.661,6.359.305a12.558,12.558,0,0,0,3.052-.967c.356-.1.61.254.712.56l.56,1.679c.305.61,1.068.305,1.628.305,3.612-.56,7.224-1.119,10.784-1.78,10.021-1.475,20.043-3.1,30.064-4.629a2.263,2.263,0,0,1,1.424.051c.254.254.051.56-.1.814a67.59,67.59,0,0,1-3.51,5.8l-.661.56c-2.493.56-5.087.814-7.631,1.221-3.51.56-6.969,1.17-10.479,1.679a6.245,6.245,0,0,0-1.933.407c-1.526-.1-2.849.509-4.324.509a33.078,33.078,0,0,1-5.545.763c-1.017-.1-1.679-1.17-2.544-1.73A7.79,7.79,0,0,0,69.485,85.4a20.431,20.431,0,0,0-4.782.763c-.916.661-.763,1.933-.61,2.95a10.13,10.13,0,0,1-1.221,3.612c-.967.763-.916,2.035-1.831,2.7-.814.763-1.933.763-2.95.967a1.776,1.776,0,0,0-.763.61c-.1,1.221,1.221,1.73,1.882,2.493.2.305-.051.712-.153,1.017a18.314,18.314,0,0,0-2.493,4.985c-1.323,3.815-1.882,7.936-3.815,11.6-1.17,1.831-2.493,3.968-4.477,4.884l-1.984.305c-.407.051-.865-.305-1.221.1-.458.814-.2,2.086-.2,2.95.407,4.426,1.424,8.648,2.187,12.921.458,1.628.967,3.256,1.424,4.884,0,.407-.458.458-.712.56-2.086.305-4.222.356-6.308.712-.407.2-.407.61-.407,1.017a8.406,8.406,0,0,1-3.357,7.987c-1.628,1.17-3.917.763-5.9,1.017a1.081,1.081,0,0,0-.712.763c-.356,1.526-.865,3-1.119,4.578,0,.814.661,1.424.763,2.187a3.688,3.688,0,0,1,0,2.849l-.661.305c-2.747.1-5.545.1-8.292.153a.65.65,0,0,1-.56-.61,11.348,11.348,0,0,1,.865-4.731,7.523,7.523,0,0,0-.61-2.391c-.2-.407-.712-.305-1.017-.153a6.652,6.652,0,0,1-2.137.56c-.967-.763-1.119-1.933-1.73-2.9a1.793,1.793,0,0,0-.712-1.017.832.832,0,0,0-.916.56c-.661,1.882-1.068,3.917-1.577,5.9-.1.305.254.509.458.56,1.577.254,3.612-.56,4.527.967a2.539,2.539,0,0,1,.1,1.73c-.509,1.628-2.442,1.272-3.815,1.373a26.8,26.8,0,0,1-6.41-.2,2.137,2.137,0,0,1-1.068-1.831c-.254-2.34-.305-4.884-.56-7.274-.1-.305-.153-.763-.509-.916-.56-.1-1.272.153-1.679-.305a12.616,12.616,0,0,1-.407-3.714c-.051-.61-.2-1.526.56-1.78l3.764-.509a11.607,11.607,0,0,1,2.594-1.068c.814-.407.61-1.424.967-2.137a74.77,74.77,0,0,0,1.475-12.26,30.1,30.1,0,0,0-.1-6.054.442.442,0,0,0-.61-.2c-1.628.967-2.95,2.594-4.782,3.154a3.282,3.282,0,0,1-3.256-1.068,14.265,14.265,0,0,1-3.815-7.478c-.763-3.815,1.221-7.071,1.882-10.581a97.537,97.537,0,0,0,1.17-10.428,26.824,26.824,0,0,1,.61-4.578A12.465,12.465,0,0,1,6.05,91.654,8.433,8.433,0,0,1,10.272,88.6c1.017-.56,2.289-.509,3.357-.814,1.984-.407,4.019-.916,5.443-2.442a.535.535,0,0,0,0-.661,16.95,16.95,0,0,1-5.341-5.24A20.449,20.449,0,0,1,12,76.138c-.916-1.17-2.95-.051-4.019-1.017a5.732,5.732,0,0,1-3.154-1.628A6.145,6.145,0,0,1,3.1,67.541c.712-2.645,3.357-4.375,6-4.68a1.287,1.287,0,0,0,.763-.305c.661-1.119.763-2.544,1.373-3.714a17.338,17.338,0,0,1,1.577-3.052,3.5,3.5,0,0,0-.763-2.086,113.3,113.3,0,0,1-8.139-18.11A16.268,16.268,0,0,0,3,32.95,78.173,78.173,0,0,1-.105,18.6c-.356-4.884,0-9.92,3.561-13.481C5.9,2.784,8.645.8,12.053.545c1.119.051,2.086-.2,3.154-.153A18.655,18.655,0,0,1,21.057,1.1Z" transform="translate(0 0)"/>
    <g id="Group_232" data-name="Group 232" transform="translate(5.067 51.066)">
      <path id="Path_528" data-name="Path 528" class="cls-3" d="M44.674,101.634c.967.967,1.272,2.289,1.882,3.459a17.659,17.659,0,0,0,.661,2.34c.153.2.458.407.712.2a7.825,7.825,0,0,1,3.357-2.238,5.707,5.707,0,0,1,6.206,2.289,5.792,5.792,0,0,1,.814,2.442,6.248,6.248,0,0,1-3.815,5.8c-1.373.763-3.1.509-4.629.56-.61.305-.1,1.221-.305,1.831-.2,2.086-.56,4.324-1.933,6a2.652,2.652,0,0,1-2.493.967,19.865,19.865,0,0,1-7.02-2.95c-.1-.2-.407-.458-.254-.763,1.526-1.831,3.612-3.612,4.324-6a4.11,4.11,0,0,0-.305-3.2,2.83,2.83,0,0,0-3.052-.814c-.458.153-1.272.153-1.221.763.509.56,1.424.1,1.78.916.712.61.56,1.831.305,2.645-.458,1.831-2.137,3-3.714,3.917-2.238,1.628-4.68,3.968-4.019,6.969a1.292,1.292,0,0,0,.61.661c.967.1.356-1.119.61-1.577a2.152,2.152,0,0,1,1.068-1.628c.254-.051.356.2.56.305,1.323,2.289,2.9,4.477,4.222,6.766.1.865-.865,1.068-1.424,1.424a13.933,13.933,0,0,1-7.274,1.119,13.4,13.4,0,0,1-8.19-3.815,17.324,17.324,0,0,1-3.612-5.036l-.56-2.187c-.509-.56-1.424-.254-2.086-.509a5.847,5.847,0,0,1,1.424-.458,1.736,1.736,0,0,0,.916-.56c-.051-.865-1.068-.2-1.628-.458l-1.119-.1c.661-.1,1.577-.051,1.831-.814-.1-1.475-.305-3.1-1.679-3.917-.153-.051-.305-.1-.407.051a12.534,12.534,0,0,0-.712,1.933,2.541,2.541,0,0,0-.305,1.831,2.32,2.32,0,0,0,1.17.916,10.078,10.078,0,0,1-2.95-.56c-.153.1-.356.254-.305.458-.051.356.509.56.56.865h-.2a4.2,4.2,0,0,1-2.289-4.07,3.94,3.94,0,0,1,2.442-3.154,6.858,6.858,0,0,1,4.171-.61c.254,0,.305-.254.407-.407a6.6,6.6,0,0,0,.305-2.8c.763-.61.661-1.628,1.068-2.34a14.2,14.2,0,0,1,2.035-3,13.5,13.5,0,0,1,5.087-2.95,26.372,26.372,0,0,1,4.578-1.272,33.152,33.152,0,0,1,5.087-.814,24.116,24.116,0,0,1,6.664.56A6.087,6.087,0,0,1,44.674,101.634Z" transform="translate(-10.167 -100.013)"/>
      <path id="Path_529" data-name="Path 529" class="cls-3" d="M106.925,164.095c.305.305.967.56.865.967a3.807,3.807,0,0,1-3.154-.712c-.56,0-.814.712-1.272.865-.712.916-2.747-.051-2.493,1.73.2,1.119,1.831.153,2.035,1.221a4.26,4.26,0,0,1-1.984,3.307c-.305.153-.763.458-.763.916.254.356.661,0,.967,0,.56-.153.865-.763,1.526-.56a2.444,2.444,0,0,1,.712,1.272,8.342,8.342,0,0,0-.458,2.238c-.2.305-.56.153-.763,0L99.7,173.506a.589.589,0,0,0-.712.305c.1,1.017,1.526,1.424,1.424,2.493-1.017.916-1.933-.407-2.849-.763-.305-.305-.967-.458-.967-1.068-.051-2.34.865-4.426,1.628-6.46.305-1.628,1.577-2.9,2.594-4.12a6.617,6.617,0,0,1,4.833-1.068C106.213,162.976,106.467,163.739,106.925,164.095Z" transform="translate(-52.63 -130.832)"/>
      <path id="Path_530" data-name="Path 530" class="cls-3" d="M121.58,162.982c-.051.2-.153.458-.356.509a1.408,1.408,0,0,1-1.424-.305c0-.305.305-.254.458-.305C120.665,162.779,121.428,162.372,121.58,162.982Z" transform="translate(-64.03 -130.788)"/>
      <path id="Path_531" data-name="Path 531" class="cls-3" d="M113.519,170.447c.051.305.2.814-.1.967a.478.478,0,0,1-.458.051,1.585,1.585,0,0,1-.56-1.068.677.677,0,0,1,.458-.305A.583.583,0,0,1,113.519,170.447Z" transform="translate(-60.394 -134.437)"/>
      <path id="Path_532" data-name="Path 532" class="cls-3" d="M119.567,170.645c-.153.56-.814.814-1.272,1.068a.526.526,0,0,1-.712-.305c-.051-.305,0-.712.305-.814a5.851,5.851,0,0,1,1.628-.1Z" transform="translate(-62.932 -134.635)"/>
      <path id="Path_533" data-name="Path 533" class="cls-3" d="M120.14,175.54a2.019,2.019,0,0,1-1.831,1.424c-.254.1-.407-.051-.56-.254a.811.811,0,0,1,.1-.763,4.233,4.233,0,0,1,2.187-.661Z" transform="translate(-62.996 -136.987)"/>
      <path id="Path_534" data-name="Path 534" class="cls-3" d="M113.568,176.358a.427.427,0,0,1-.305.61c-.305-.1-.763-.356-.763-.763,0-.1.051-.305.2-.305A1.208,1.208,0,0,1,113.568,176.358Z" transform="translate(-60.443 -137.296)"/>
      <path id="Path_535" data-name="Path 535" class="cls-3" d="M113.205,181.26c-.153.051-.2-.051-.305-.153C113,180.9,113.358,181.056,113.205,181.26Z" transform="translate(-60.64 -139.807)"/>
      <path id="Path_536" data-name="Path 536" class="cls-3" d="M119.167,181.191c-.1.305-.407.407-.661.509-.1.051-.2-.051-.305-.1A.976.976,0,0,1,119.167,181.191Z" transform="translate(-63.244 -139.891)"/>
      <path id="Path_537" data-name="Path 537" class="cls-3" d="M112.8,184.979a1.142,1.142,0,0,1-.305.712c-.2.1-.254-.153-.305-.305a.735.735,0,0,1,.305-.712C112.648,184.572,112.9,184.776,112.8,184.979Z" transform="translate(-60.286 -141.593)"/>
      <path id="Path_538" data-name="Path 538" class="cls-3" d="M117.967,185.4a1.193,1.193,0,0,1-.56.56c-.153.051-.407,0-.407-.153a.523.523,0,0,1,.509-.56C117.61,185.193,117.967,185.091,117.967,185.4Z" transform="translate(-62.654 -141.858)"/>
      <path id="Path_539" data-name="Path 539" class="cls-3" d="M40.026,199.306c1.017.763,2.289,1.17,3.1,2.238-.2,1.221.916,1.933,1.272,2.95.305.865,1.119,1.577.763,2.645-.1.305-.2.763-.56.763-.254,0-.356-.305-.509-.509-.305-.763-.1-1.78-.865-2.289-.1-.305-.1-.661-.458-.763a.626.626,0,0,0-.712.254,4.045,4.045,0,0,0,.305,2.442c.458,1.221,1.017,2.8.458,4.12-.254.305-.458.56-.814.56l-.254-.153a22.783,22.783,0,0,0-1.373-4.477,1.14,1.14,0,0,0-.967-.61.752.752,0,0,0-.56.407v.712c.356,1.373,1.17,2.544,1.221,4.07a1.589,1.589,0,0,1-.814,1.526c-.305.1-.407-.2-.509-.407-.153-1.424-.56-2.95-1.984-3.612a.583.583,0,0,0-.661.356c0,.509.509.763.61,1.221a3.8,3.8,0,0,1-.1,3.612,1.021,1.021,0,0,1-1.119.305,1.173,1.173,0,0,1-.56-1.017c-.051-.763.967-.56,1.17-1.17-.356-.56-1.068-.56-1.526-1.119a6.533,6.533,0,0,1-2.289-3.154c-.712-.967-2.544-.458-2.544-2.086-.2-2.9.1-6,2.747-7.478C34.889,197.424,37.839,198.391,40.026,199.306Z" transform="translate(-19.764 -148.188)"/>
      <path id="Path_540" data-name="Path 540" class="cls-3" d="M62.353,205.956a1.21,1.21,0,0,1-.814,1.119c-.56.2-.865-.254-1.119-.61a.842.842,0,0,1-.153-.712c.458-.305.865.1,1.272-.153C61.845,205.651,62.252,205.6,62.353,205.956Z" transform="translate(-34.765 -151.888)"/>
    </g>
    <path id="Path_541" data-name="Path 541" class="cls-4" d="M21.7,4.914A75,75,0,0,1,33.143,9.085c2.442,1.119,4.934,1.882,7.325,3.2a6.91,6.91,0,0,1,2.086,1.119c.1.407-.407.458-.661.61a75.944,75.944,0,0,1-7.274,2.391,32.026,32.026,0,0,1-8.292,1.221,17.719,17.719,0,0,1-3.714-.305,16.771,16.771,0,0,1-3.968-.967c-1.577-.661-3.052-1.526-4.578-2.34-.712-.305-.865-1.373-1.628-1.221-.254.305.051.712.153.967a12.693,12.693,0,0,0,6.867,5.29,27.43,27.43,0,0,0,12.056.916c5.443-.763,10.327-2.747,15.363-4.477a32.675,32.675,0,0,1,7.732-1.628,23.631,23.631,0,0,1,8.5.967c.153-.051.305-.051.407-.2-.1-.763-.916-.916-1.373-1.424a18.992,18.992,0,0,0-3.256-1.526l-.1-.1a14.983,14.983,0,0,1,3.2.661,8.792,8.792,0,0,1,5.7,5.952A10.786,10.786,0,0,1,68.04,21.8c-.712,3-2.7,5.443-4.782,7.783a77.244,77.244,0,0,1-9.665,8.139c-1.831,1.628-4.171,2.544-6.054,3.968A29.9,29.9,0,0,0,41.333,47.9a14.286,14.286,0,0,0-1.323,3.154c-.305.356-.763.1-1.119.1-4.833-1.119-10.072-.254-14.447,1.068-2.34.763-4.629,1.831-6.867,2.8-.712-.1-.967-.916-1.373-1.424a117.113,117.113,0,0,1-6.155-12.718A125.911,125.911,0,0,1,5.826,28.06,61.561,61.561,0,0,1,4.3,17.937c.356-2.747.254-5.8,2.137-7.936a20.83,20.83,0,0,1,4.07-4.12A9.66,9.66,0,0,1,16.56,4.1,21.664,21.664,0,0,1,21.7,4.914Z" transform="translate(-2.218 -1.825)"/>
    <path id="Path_542" data-name="Path 542" class="cls-4" d="M92.636,17.8c-.356.305-.967-.051-1.475.1-1.78.458-3.612.712-5.341,1.323-.56,0-1.17-.051-1.424-.458-.051-.254.254-.305.407-.356A33.072,33.072,0,0,1,92.636,17.8Z" transform="translate(-41.565 -8.556)"/>
    <path id="Path_543" data-name="Path 543" class="cls-1" d="M79.3,28.4c.051.305-.458.356-.712.458-5.24.763-10.123,2.7-13.786,6.613-1.17,1.628-3,2.747-4.527,4.019a29.494,29.494,0,0,1-6,3.154l-3.357.763a17.008,17.008,0,0,1-5.341-.356c-.1-.1-.2-.305-.051-.407.56-.407,1.323-.356,1.933-.712a48,48,0,0,0,6.206-2.747,34.428,34.428,0,0,0,5.24-3.815,27.637,27.637,0,0,1,6.664-4.782l2.645-1.17A33.174,33.174,0,0,1,79.1,28.251Z" transform="translate(-22.433 -13.665)"/>
    <path id="Path_544" data-name="Path 544" class="cls-4" d="M293.372,31.559l.254.712c.051,3.1.254,6.257.305,9.462-.051.458-.2,1.017-.763,1.068a2.888,2.888,0,0,1-2.34-.153c-.967-.712-.356-2.035-.661-3.1A1.2,1.2,0,0,0,289,38.529a1.16,1.16,0,0,0-.967.356c-.967,1.017.407,3.256-1.221,3.815-1.17-.1-2.645.1-3.2-1.119l-.1-3.612c-.051-1.628-.1-3.561-.2-5.29a4.522,4.522,0,0,1,2.7-1.424c.509-.051,1.17-.1,1.373.407.254.967.051,1.984.254,2.95a1.366,1.366,0,0,0,.763.916,1.818,1.818,0,0,0,1.475-.153c.916-1.119-.407-3.1,1.221-3.714C291.592,31.305,292.711,30.9,293.372,31.559Z" transform="translate(-139.29 -15.143)"/>
    <path id="Path_545" data-name="Path 545" class="cls-4" d="M273.609,31.857c.305.865-.305,1.628-.61,2.391-.356.56-1.17.254-1.374.814-.1,1.984-.051,3.917,0,6a1.659,1.659,0,0,1-.407,1.373c-.763.61-1.831.153-2.7-.051-.407-.305-.916-.61-1.068-1.119a44.683,44.683,0,0,1-.2-5.189c-.305-.356.153-1.017-.458-1.221-.763-.254-1.882-.254-2.086-1.272a4.441,4.441,0,0,1,0-1.831c.865-.712,2.035-.1,3.052-.305,1.679,0,3.51-.1,5.24,0A.573.573,0,0,1,273.609,31.857Z" transform="translate(-130.108 -15.237)"/>
    <path id="Path_546" data-name="Path 546" class="cls-4" d="M313.267,31.836a3.848,3.848,0,0,1,.661,2.493c-.712.56-1.628.2-2.493.356-.356.1-.967-.1-1.17.305.1.356.56.153.865.305.61.1,1.424-.2,1.831.305a2.766,2.766,0,0,1,.61,2.544l-.407.254c-1.017.2-2.543-.356-3.1.712,0,.305.051.661.407.712a10.057,10.057,0,0,1,3.052.254,2.24,2.24,0,0,1,.712,2.086c-.356.407-.967.356-1.526.458-.356-.1-.814,0-1.17-.254a12.152,12.152,0,0,1-3.357.305c-.509,0-.967-.1-1.17-.56-.356-1.221-.051-2.645-.254-3.917-.051-1.831-.2-3.663-.356-5.341a1.6,1.6,0,0,1,.356-1.068c.763-.407,1.628-.051,2.442-.254,1.221.1,2.34-.2,3.561,0Z" transform="translate(-150.639 -15.267)"/>
    <path id="Path_547" data-name="Path 547" class="cls-1" d="M82.149,56.5c-1.17,1.221-2.747,1.831-4.019,2.95-1.424,1.068-3.1,1.679-4.527,2.7-1.272.865-2.7,1.424-4.019,2.289-2.493.814-4.68,2.238-7.274,2.7a9.458,9.458,0,0,1-4.477-.153c-.712-.509-1.577-.763-1.933-1.628.56-.153.814.305,1.323.305a14.137,14.137,0,0,0,4.629,0,52.58,52.58,0,0,0,8.75-3.1c1.78-1.017,3.663-1.73,5.392-2.8,1.526-.763,3-1.577,4.477-2.442C81.081,57.06,81.589,56.7,82.149,56.5Z" transform="translate(-27.569 -27.569)"/>
    <path id="Path_548" data-name="Path 548" class="cls-4" d="M387.394,33.646a.766.766,0,0,1-.153.865c-.1.254-.661.153-.458.509l.916,1.119c.051.1.254.051.2.2-.254.051-.712.153-.865-.1l-1.017-1.272a.1.1,0,0,0-.153,0l-.051.1a4.135,4.135,0,0,0,.051,1.119c.051.1.305.1.2.254a4.5,4.5,0,0,1-1.17,0l-.051-.051c.1-.1.254-.1.305-.254a22.956,22.956,0,0,0-.051-2.645c0-.2-.254-.153-.305-.254a10.418,10.418,0,0,1,1.78-.051A1.011,1.011,0,0,1,387.394,33.646Zm-1.475-.305a.162.162,0,0,0-.153.153v1.068l.051.1a.8.8,0,0,0,.865-.254.69.69,0,0,0,.051-.763C386.631,33.34,386.275,33.34,385.919,33.34Z" transform="translate(-189.157 -16.11)"/>
    <path id="Path_549" data-name="Path 549" class="cls-3" d="M186.7,72.718c.458,2.238-.356,4.477-1.119,6.41-.967,1.577-1.424,3.357-2.391,4.934-3.2,5.7-6.664,11.446-11.954,15.973-1.17.712-2.289,1.78-3.866,1.373a1.9,1.9,0,0,1-.967-1.831c.051-.458,0-.916.305-1.221a7.536,7.536,0,0,0,2.442-7.274c.1-.61.763-.661,1.017-1.221.56-.661.661-1.679,1.526-2.086,1.119-.56,2.544-.305,3.714-.61.865-.305,2.086-.407,2.442-1.424,0-.458,0-1.017.509-1.221a8.767,8.767,0,0,1,1.068-.356c.458-.407,1.119-.763,1.17-1.424a.976.976,0,0,0-.305-1.017,6.9,6.9,0,0,0-2.086-.407c-.305-.2-.1-.661-.1-.916.509-1.984,1.78-3.612,2.9-5.341,1.017-1.373,2.086-2.95,3.764-3.561A2.189,2.189,0,0,1,186.7,72.718Z" transform="translate(-81.857 -34.936)"/>
    <path id="Path_550" data-name="Path 550" class="cls-5" d="M220.043,80.915c1.068-.61,2.035-1.831,3.357-1.221a3,3,0,0,1,1.628,1.628c.56.305.865-.356,1.323-.56a2.33,2.33,0,0,1,2.238.56c.305.254.712.56.763.916l-.1.661c-.763,1.831-2.086,3.408-2.544,5.443,0,.153-.051.305.1.458.61,0,.865-.661,1.323-.967a13.345,13.345,0,0,0,1.882-3.815c.661-1.475,1.424-2.95,2.238-4.375.814-.61,1.831,0,2.594.254.407.2.865.458.916.967a9.7,9.7,0,0,1-1.068,2.493,48.806,48.806,0,0,0-2.289,5.291c-.051.56-.356,1.17,0,1.628a1.957,1.957,0,0,0,.763-.916c1.017-3.764,2.594-7.631,5.952-10.021,1.017-.865,2.7-.661,3.815-.153.865-.1,1.17-1.424,2.187-1.17a3.172,3.172,0,0,1,2.137,1.882c.2.2.305-.1.407-.153.661-1.017,1.221-2.747,2.8-2.493a2.484,2.484,0,0,1,1.73.305,1.251,1.251,0,0,1-.1,1.323,52.351,52.351,0,0,0-2.391,6.1c.051.1,0,.153.1.254a5.718,5.718,0,0,0,1.628-2.289c1.017-2.086,2.289-4.12,3.357-6.206,1.119-1.017,2.086.56,2.95.967.153.153.153.458.407.56.712-.2.967-1.068,1.577-1.475.967-.865,1.933-1.984,3.357-1.679.916.458,1.068,1.526,1.221,2.442-.051,1.73-1.323,2.95-2.137,4.324a8.5,8.5,0,0,0-1.119,2.493.6.6,0,0,0-.1.712c.763.254,1.119-.763,1.577-1.119,1.323-1.78,1.526-4.019,2.9-5.748a13.371,13.371,0,0,1,3.307-3.866c.509-.254.967-.712,1.577-.712a3.178,3.178,0,0,1,1.577.712c.712-.254,1.17-.865,1.984-.814a2.387,2.387,0,0,1,2.289,1.17h.1c.61-.967.763-2.137,1.323-3.154,1.323-3.357,2.9-6.969,6-9.411a2.624,2.624,0,0,1,2.849.1c1.526,1.068.814,3.052.712,4.629a40.863,40.863,0,0,1-1.831,4.934,33.073,33.073,0,0,1-5.24,8.394c-.458.763-1.475,1.475-1.068,2.442a1.307,1.307,0,0,0,1.068.61c1.73-.56,2.493-2.442,3.408-3.815a30.6,30.6,0,0,0,1.323-3.357c.1-.305.458-.2.61-.1a3.669,3.669,0,0,1,1.475,2.493,6.092,6.092,0,0,1-.763,2.289l-.814,1.424c-1.272,2.238-3,4.477-5.545,5.138a3.164,3.164,0,0,1-3-.56c-.305-.305-.56-.865-1.017-.916-.967.051-1.475,1.017-2.34,1.272a4.5,4.5,0,0,1-2.594.305c-.61-.051-1.068-.967-1.73-.509a9.31,9.31,0,0,1-2.289,1.984c-.661.1-1.424.356-2.035-.1-.61-.305-.814-1.017-1.323-1.475l-.305.1c-1.272.967-2.747,2.187-4.578,1.628-1.017-.407-1.17-1.628-1.475-2.493-.1-.1-.2-.2-.305-.1-.967,1.017-1.221,2.442-1.984,3.612a1.162,1.162,0,0,1-1.374.407,2.735,2.735,0,0,1-1.068-.967c-.254-.305-.305-.916-.763-.916-.56.305-.865.967-1.424,1.272a5.025,5.025,0,0,1-4.019,1.373c-.661-.153-.763-.916-1.068-1.373a13.933,13.933,0,0,1,.61-5.443h-.051c-1.068,1.424-1.424,3.256-2.137,4.884-.967,2.9-2.035,5.7-3.154,8.5a26.164,26.164,0,0,1-1.628,2.493c-.967.916-1.984,1.882-3.357,1.933a5.809,5.809,0,0,1-3.2-2.391c-.967-1.628-.56-3.815.254-5.392a3.434,3.434,0,0,1,3.2-.305c.407.153.356.712.305,1.017a9.581,9.581,0,0,0-.661,2.95c.051.1.1.305.305.305l.356-.1a11.793,11.793,0,0,0,2.493-4.477.581.581,0,0,0-.305-.763,4.453,4.453,0,0,1-3.51-.56l-.305.051-1.679,1.373-1.933.458a5.678,5.678,0,0,1-2.086-1.577c-.814-.2-1.068.916-1.831,1.272a2.666,2.666,0,0,1-2.747.2c-1.323-.763-1.323-2.34-1.628-3.663-.1-.153-.305-.051-.407.1-1.424,1.831-2.544,3.968-4.222,5.647a1.574,1.574,0,0,1-1.17.407c-.763-.305-1.831-.61-1.984-1.628.051-1.272,1.374-1.933,1.831-2.95a16.827,16.827,0,0,0,3.2-6.206c.1-.712.1-1.526-.56-1.882a1.8,1.8,0,0,0-.661-.407Zm64.4-15.871c-.56-.1-.814.356-1.221.661a33.1,33.1,0,0,0-2.086,3.714c-.814,2.289-1.882,4.477-2.086,7.071.458,0,.56-.509.916-.763a34.452,34.452,0,0,0,4.477-9.36C284.445,65.959,284.648,65.45,284.445,65.043Zm-32.15,5.24c-1.17.254-1.628,1.526-2.035,2.493-.356.56-.865,1.373-.356,2.035a2.946,2.946,0,0,0,3,.763,7.589,7.589,0,0,0,2.137-4.375C254.533,70.13,253.261,70.232,252.295,70.283Zm-16.889,1.628c-.458.1-.763.61-.967,1.017-.509,1.221-1.526,2.34-1.323,3.815a2.87,2.87,0,0,0,2.391,1.424c.814.051.967-.865,1.424-1.323.356-1.119,1.221-2.035,1.221-3.307A3.126,3.126,0,0,0,235.406,71.911ZM275.7,75.675a27.86,27.86,0,0,0-3.154,5.952,2.115,2.115,0,0,0-.1,1.119c.763.305,1.373-.254,1.831-.763.814-.356.509-1.424.763-2.086.1-1.424.661-2.8.712-4.222Zm-6.206,2.493a20.8,20.8,0,0,0-2.289,5.087c0,.2-.2.61.1.661a2.645,2.645,0,0,0,1.017-.967,20.522,20.522,0,0,0,2.238-5.189C270.4,76.9,269.794,77.914,269.489,78.168ZM239.73,83.509a14.821,14.821,0,0,0-2.187,3.764c-.1.56-.407,1.221-.1,1.73a.761.761,0,0,0,.763-.305c1.221-1.577,2.34-3.154,2.493-5.138C240.595,82.95,239.933,83.2,239.73,83.509Z" transform="translate(-105.538 -30.161)"/>
    <path id="Path_551" data-name="Path 551" class="cls-1" d="M392.1,39.7Z" transform="translate(-192.743 -19.315)"/>
    <path id="Path_552" data-name="Path 552" class="cls-1" d="M382.6,38.7Z" transform="translate(-188.076 -18.824)"/>
    <path id="Path_553" data-name="Path 553" class="cls-4" d="M387.385,32.943a2.487,2.487,0,0,0-1.526-1.424h0a2.762,2.762,0,0,0-3.1.763,2.668,2.668,0,0,0-.458,2.8,2.749,2.749,0,0,0,2.035,1.679h0a2.772,2.772,0,0,0,3.052-3.815Zm-.356,2.493a2.6,2.6,0,0,0,.2-2.442,2.519,2.519,0,1,0-2.747,3.51A2.469,2.469,0,0,0,387.029,35.436Z" transform="translate(-187.824 -15.203)"/>
    <path id="Path_554" data-name="Path 554" class="cls-1" d="M383.5,33.151h0v0Z" transform="translate(-188.518 -16.073)"/>
    <path id="Path_555" data-name="Path 555" class="cls-1" d="M392.5,34.5Z" transform="translate(-192.94 -16.761)"/>
    <path id="Path_556" data-name="Path 556" class="cls-1" d="M386.7,39.2Z" transform="translate(-190.09 -19.07)"/>
    <path id="Path_557" data-name="Path 557" class="cls-1" d="M65,105.852a5.768,5.768,0,0,0,.814,1.323c.2-.051.407-.1.56.051a7.4,7.4,0,0,1,.763,3.51c.153.56.56,1.017.56,1.628l-.305.1a7.739,7.739,0,0,0-5.85.661l-1.577,1.119c-.305.051-.356-.2-.356-.407-.1-.56.305-1.068.1-1.628a6.324,6.324,0,0,1,.051-5.087,3.813,3.813,0,0,1,3.052-1.933A2.768,2.768,0,0,1,65,105.852Z" transform="translate(-29.189 -51.486)"/>
    <path id="Path_558" data-name="Path 558" class="cls-4" d="M65.661,108.5c.051.509-.61.712-.763,1.119-.763.865.254,2.7-1.221,3-.407.153-.814.458-1.272.356-.814-.865-.509-2.289-.1-3.307.509-.814,1.17-1.628,2.187-1.577C64.9,108.25,65.407,108.149,65.661,108.5Z" transform="translate(-30.513 -52.918)"/>
    <path id="Path_559" data-name="Path 559" class="cls-1" d="M175.314,114.358c.1.56-.254.967-.458,1.373a18.3,18.3,0,0,1-2.95,3.307,1.56,1.56,0,0,1-1.475.254.827.827,0,0,1-.56-.763c-.153-.661.305-1.119.61-1.577,1.221-1.119,2.289-2.7,3.968-3.052C174.856,113.9,175.263,114,175.314,114.358Z" transform="translate(-83.547 -55.77)"/>
    <path id="Path_560" data-name="Path 560" class="cls-1" d="M51.982,115.566c0,.2-.153.254-.305.305l-2.7-.56a.406.406,0,0,1-.1-.661,1.319,1.319,0,0,1,1.373-.305A6.336,6.336,0,0,1,51.982,115.566Z" transform="translate(-24.057 -55.961)"/>
    <path id="Path_561" data-name="Path 561" class="cls-1" d="M95.431,118.752a4.358,4.358,0,0,1-1.984,4.273,3.218,3.218,0,0,1-3.307.153c-.2-.153-.56-.305-.458-.61.356-.254.967-.051,1.424-.2a3.851,3.851,0,0,0,2.747-2.391c.305-.56.1-1.424.865-1.679A.767.767,0,0,1,95.431,118.752Z" transform="translate(-44.157 -57.925)"/>
    <path id="Path_562" data-name="Path 562" class="cls-1" d="M52.9,119.139l-.1.254c-.865.56-1.424,1.424-2.493,1.628-.2-.051-.407-.2-.407-.407.153-.865,1.17-1.068,1.78-1.424C52.037,119.037,52.7,118.579,52.9,119.139Z" transform="translate(-24.621 -58.211)"/>
    <path id="Path_563" data-name="Path 563" class="cls-4" d="M342.58,235.81c.56,1.221.305,2.849.305,4.222a1.481,1.481,0,0,1-1.17,1.068l-4.68.407a.875.875,0,0,0-.56.56c-.051.356.305.56.56.763,1.831.1,3.51-.356,5.392-.254a2.06,2.06,0,0,1,1.068.356,2.324,2.324,0,0,1,.56,1.984c-.051.865.407,2.238-.712,2.594-1.933.254-4.07.051-6,.509a.422.422,0,0,0-.1.407c.407.509,1.17.407,1.78.356l3.357-.051c.458-.051.661.305.967.509.56,1.068.305,2.391.407,3.612a2.419,2.419,0,0,1-1.17,1.475c-.56,0-.967.254-1.526.305a40.415,40.415,0,0,1-5.545-.051,4.1,4.1,0,0,1-3.154-2.594c-1.017-2.391-.967-5.189-1.221-7.936-.1-1.577-.2-3.307-.356-4.833-.1-1.221.1-2.594,1.221-3.2,2.391-.967,5.341-.763,7.987-.814C340.952,235.353,341.918,235.149,342.58,235.81Z" transform="translate(-162.604 -115.364)"/>
    <path id="Path_564" data-name="Path 564" class="cls-4" d="M316.094,238.554a12.6,12.6,0,0,1,.458,4.629c-.1,1.221-1.475,1.17-2.34,1.475-.458.1-.763-.1-1.119-.1-.2-.153-.56-.1-.712-.356-.305-.051-.458-.305-.712-.509.051-.305-.305-.356-.305-.712.051-.763-.661-1.068-1.17-1.526a.732.732,0,0,0-.865.458,1.789,1.789,0,0,0,.56,1.831c.61.661,1.628.865,2.238,1.272.305-.051.254.305.61.153v.051c.153.1.56-.1.61.153a4.679,4.679,0,0,1,3.408,2.34,6.84,6.84,0,0,1-.814,5.9,7.552,7.552,0,0,1-4.68,2.137c-.356.153-.865-.1-1.272.1a10.117,10.117,0,0,1-6.1-1.221,2.207,2.207,0,0,1-.56-2.137c.305-1.272.56-3.154,2.187-3.357,1.73.2,3.307,1.17,5.087.763.254-.2.153-.509,0-.763a14,14,0,0,0-3.612-.967,11.656,11.656,0,0,1-1.424-.356,4.012,4.012,0,0,1-1.628-2.035,12.67,12.67,0,0,1,.2-7.02c.763-2.137,3.154-3.2,5.341-3.357C312.075,235.553,315.127,235.756,316.094,238.554Z" transform="translate(-149.09 -115.462)"/>
    <path id="Path_565" data-name="Path 565" class="cls-4" d="M222.237,236.45c.356.763.1,1.628.305,2.493.051,1.374.1,2.849.2,4.222,0,1.323.305,2.493.254,3.815.153,1.628.2,3.357.356,4.884-.051,1.221.1,2.493.1,3.764a1.4,1.4,0,0,1-.712.916,7.541,7.541,0,0,1-4.629-.712c-.356-.254-.356-.661-.458-1.017a17.134,17.134,0,0,0-.509-4.07c-.305-.356-.814-.254-1.221-.153a1.314,1.314,0,0,0-.763,1.017c0,1.272.2,2.493.2,3.815a1.422,1.422,0,0,1-.56.916,5.676,5.676,0,0,1-5.036-.712c-.509-.458-.305-1.17-.407-1.831-.254-5.087-.763-10.225-.967-15.312,0-.763.763-1.17,1.373-1.526a7.616,7.616,0,0,1,3.459-.967,1.11,1.11,0,0,1,.967.458l.1.305c.254,2.34.1,4.629.407,6.918a.894.894,0,0,0,.61.509c.509-.051,1.068,0,1.424-.407l.153-.509c-.051-1.628-.1-3.357-.153-4.884.712-1.78,2.7-1.984,4.375-2.34A1.13,1.13,0,0,1,222.237,236.45Z" transform="translate(-102.492 -115.75)"/>
    <path id="Path_566" data-name="Path 566" class="cls-4" d="M285.419,236.679c.763.509.661,1.577.763,2.391.153,3,.407,6.155.661,9.106a8.819,8.819,0,0,1-2.289,6.155c-.1.356-.458.407-.712.661-.712.2-1.323.763-1.984.967a11.042,11.042,0,0,1-4.985.254c-.458-.254-.967-.458-1.424-.712a4.408,4.408,0,0,1-1.577-1.17,11.055,11.055,0,0,1-1.323-2.7c-.1-1.933-.56-3.815-.509-5.748l-.305-4.527a33.546,33.546,0,0,1,0-3.917c.2-.56.865-.56,1.374-.763a8.031,8.031,0,0,1,3.968.254c1.119.305.712,1.78.865,2.645.2,2.137.2,4.477.458,6.613a7.345,7.345,0,0,0,.661,2.95.34.34,0,0,0,.509.1,2.216,2.216,0,0,0,.254-1.323c0-3.052-.254-5.8-.407-8.8-.051-.763-.2-1.882.763-2.289a8.148,8.148,0,0,1,3.357-.305A4.061,4.061,0,0,1,285.419,236.679Z" transform="translate(-133.574 -115.978)"/>
    <path id="Path_567" data-name="Path 567" class="cls-4" d="M243.865,187.773c1.068,1.373,1.628,2.95,2.95,4.12l.1-.153c.153-1.679-.254-3.357-.051-4.985.305-1.119,1.577-1.424,2.493-1.73.763-.1,1.984-.712,2.493.254l.305.967c.1,3,.305,5.9.509,8.851.051.509-.153,1.119.153,1.526.2,2.289.051,4.375.153,6.867-.305.865-1.323.967-2.086,1.17a4.92,4.92,0,0,1-2.7.356c-1.221-1.475-2.086-3.154-3.408-4.578a3.658,3.658,0,0,0-.916-1.068c-.509.2-.305.967-.356,1.424a29.365,29.365,0,0,1,.1,3.663c-.56,1.017-1.933.56-2.95.61a6.611,6.611,0,0,1-2.289-.61,1.327,1.327,0,0,1-.56-1.068c-.1-2.7-.407-5.341-.509-7.936-.051-2.7-.458-5.392-.509-8.241-.1-1.068,1.119-1.272,1.831-1.628.814-.356,1.679-.967,2.7-.661C242.644,185.382,243.1,186.756,243.865,187.773Z" transform="translate(-116.439 -90.574)"/>
    <path id="Path_568" data-name="Path 568" class="cls-4" d="M373.956,185.356a11.647,11.647,0,0,1,.967,4.019,1.238,1.238,0,0,1-.305.967c-1.17.712-2.747.356-4.171.56-.814.153-1.984-.305-2.289.763a.735.735,0,0,0,.509.356c1.577.153,3.154-.305,4.629.254.305.356.153.916.56,1.221a13.04,13.04,0,0,1,.509,2.747,1,1,0,0,1-.509.763l-.661.254a22.886,22.886,0,0,0-4.222.356c-.305.153-.2.509-.305.763.1.967,1.17.661,1.882.814,1.068.1,2.086-.153,3.154-.051.967.1.763,1.17.967,1.882.051,1.017.509,2.34-.2,3.2l-.61.356-3.917.1c-1.424-.1-2.7.254-4.019.1a4.732,4.732,0,0,1-2.594-1.221c-.305-.712-.916-1.221-.814-2.086-.153-2.289-.1-4.426-.305-6.664-.1-2.289-.1-4.833-.305-7.122a2.655,2.655,0,0,1,1.475-2.137,19.459,19.459,0,0,1,2.95-.356c2.035,0,4.121-.1,6.1-.2A3.943,3.943,0,0,1,373.956,185.356Z" transform="translate(-177.906 -90.701)"/>
    <path id="Path_569" data-name="Path 569" class="cls-4" d="M254.882,245.409c-.407-2.442-.916-4.884-2.747-6.715l-.763-.509c-2.493-.763-5.189-.051-7.478.763a6.453,6.453,0,0,0-2.95,2.493,12.644,12.644,0,0,0-1.272,5.7,15.965,15.965,0,0,0,.1,4.68,7.656,7.656,0,0,0,1.475,3.357,6.185,6.185,0,0,0,3.612,2.442,8.9,8.9,0,0,0,9.207-3.154C255.339,251.819,255.238,248.461,254.882,245.409Zm-6.359,5.952c-.153.61-.254,1.424-.916,1.679-.814,0-1.017-.967-1.221-1.526a13.954,13.954,0,0,1-.1-8.037c.2-.305.356-.814.814-.865s.712.407.865.763C248.981,245.765,248.828,248.716,248.523,251.361Z" transform="translate(-117.79 -116.671)"/>
    <path id="Path_570" data-name="Path 570" class="cls-4" d="M185.817,187.866a6.145,6.145,0,0,0-4.68-2.9c-3.561-.61-6.664.916-9.614,2.289-.763.458-1.628.763-2.035,1.526-.56,1.475-.254,3.357-.1,4.934.1.305.2.814.61.865.763-.407,1.272-1.119,2.035-1.424.305,0,.356.407.458.712l.254,7.427c.153.865-.254,2.137.509,2.849a7.55,7.55,0,0,0,4.629,1.526.833.833,0,0,0,.509-.763c-.1-1.424-.1-2.9-.153-4.426-.051-.763.865-.865,1.323-1.221.305-.153.407-.865.916-.56a10.568,10.568,0,0,0,3.2-2.086,6.446,6.446,0,0,0,2.289-3.154A6.206,6.206,0,0,0,185.817,187.866Zm-6.41,5.6c-.356.305-.712.814-1.221.763a3.235,3.235,0,0,1-.254-1.424,7.452,7.452,0,0,1,.1-2.137c.661-.254,1.78-.56,2.238.305S179.967,192.7,179.408,193.462Z" transform="translate(-83.215 -90.616)"/>
    <path id="Path_571" data-name="Path 571" class="cls-4" d="M34.738,168.345c.407,0,.967-.153,1.323.1a3.523,3.523,0,0,0,3.357,1.119c1.882-.458,4.019-2.187,5.952-.661a8.37,8.37,0,0,1,3.357,5.443,45.16,45.16,0,0,1,.1,14.8c-.458,1.831-.458,3.815-.763,5.7a72.372,72.372,0,0,0-.2,13.277,52.705,52.705,0,0,0,1.119,8.037L51.119,224c.1.458-.407.61-.763.763a69.839,69.839,0,0,1-10.378.56,93.575,93.575,0,0,0-18.618,1.628c-.712,0-1.424.407-2.137.153-.407-.61-.051-1.424-.051-2.137a90.8,90.8,0,0,0,.916-12.412c.1-1.628,0-3.357.1-4.934l.407-.61c1.577-1.17,3.052-2.442,4.578-3.612.56-.458.2-1.323.763-1.73l1.526-.305a4.369,4.369,0,0,1,2.442-.61,14.74,14.74,0,0,0,1.831-1.272,3.723,3.723,0,0,0,2.493-1.272c.56-.56.458-1.424,1.221-1.882a3.835,3.835,0,0,0,2.086-3.866c0-.61-.61-1.221-.1-1.831a3.872,3.872,0,0,0,2.34-2.95,3.242,3.242,0,0,0-.407-1.831c-.356-.356-1.017-.1-1.475-.1a5.685,5.685,0,0,1-4.629-.712c-2.594-1.933-5.545-3.459-9-3a10.939,10.939,0,0,0-3.154,1.628c-2.086,1.628-2.95,3.917-4.884,5.494a27.122,27.122,0,0,1-5.545,4.222c-.305.1-.305-.254-.407-.407-.153-1.323.305-2.289.305-3.561A81.714,81.714,0,0,1,12,179.485c.56-2.086.967-4.527,3.256-5.7,2.086-1.17,4.578-1.424,7.071-1.831.458-.2.967-.509,1.475-.254.305.509-.1,1.17.56,1.475a1,1,0,0,0,1.272,0,40.472,40.472,0,0,0,1.272-4.426.735.735,0,0,1,.509-.356A17.786,17.786,0,0,0,34.738,168.345Z" transform="translate(-5.135 -82.49)"/>
    <path id="Path_572" data-name="Path 572" class="cls-4" d="M315.964,199.719c-1.424-1.78-2.849-3.408-4.222-5.189-.254-.56-.967-.967-.916-1.679a37.274,37.274,0,0,1,3.307-3.764c.356-.763,1.424-1.221,1.424-2.137-.407-1.068-1.475-1.526-2.187-2.289-.712-.305-1.221-1.17-2.086-.763-1.221,1.068-2.187,2.289-3.357,3.307-.407.305-.56.814-1.119.916-.153,0-.2-.2-.254-.305-.1-1.272-.153-2.544-.356-3.815l-.2-.356a.721.721,0,0,0-.814-.356,14.02,14.02,0,0,0-4.324,1.831c-.509.305-.305,1.068-.305,1.628.1,4.477.458,9.055.458,13.531l-.153.2c-1.475-2.34-1.984-5.087-3.154-7.478-1.323-2.7-2.289-5.545-3.612-8.343-.712-.763-1.78-.61-2.8-.56-1.272.305-2.8.153-3.612,1.323-1.679,4.375-3.307,8.8-4.884,13.175-.051.1-.1.305-.254.153.1-.814-.61-1.424-1.323-1.831a11.775,11.775,0,0,0-2.849-.967c-.661.254-.763.967-1.068,1.577-.407.56-.712,1.679-1.628,1.475-.712-.305-.712-1.119-.865-1.73a18.484,18.484,0,0,1,.763-5.545c.305-.712.56-1.628,1.323-1.984.56.305.407,1.017.56,1.577.051.865-.356,2.187.458,2.747a17.511,17.511,0,0,0,4.426.865.851.851,0,0,0,.56-.458c.305-1.119.305-2.493.56-3.561-.1-2.544-.305-5.545-2.95-6.613-2.035-.305-4.477-.509-6.257.458-2.035,1.068-2.7,3.307-3.663,5.189a25.93,25.93,0,0,0-1.221,4.934,13.092,13.092,0,0,0,.509,6.715c.61.865.967,2.086,2.086,2.544a6.437,6.437,0,0,0,2.95.865c1.882-.1,4.07.051,5.341-1.475a11,11,0,0,0,1.679-2.442,2.138,2.138,0,0,0,.61,1.323,7.7,7.7,0,0,0,3.764,1.831c.305-.051.712-.051.814-.407a7.5,7.5,0,0,1,1.17-2.7,3.175,3.175,0,0,1,1.831-.254,38.96,38.96,0,0,1,4.222,0c.61.305.61,1.017.967,1.526.305.56.305,1.424,1.119,1.424a3.588,3.588,0,0,0,2.187-.509,15.515,15.515,0,0,0,2.289-1.424c.356.254.2.763.56.967a13.564,13.564,0,0,0,4.171,1.017c.509-.1,1.221.1,1.628-.305.254-1.272-.1-2.493.1-3.815.051-.1.1-.254.254-.2,1.323,1.323,2.594,2.849,3.815,4.324l.305.1a1.707,1.707,0,0,0,1.17-.56,15.925,15.925,0,0,0,2.95-2.9C316.117,200.38,316.117,200.024,315.964,199.719Zm-25.74-4.171h0c-.56.153-.2-.458-.305-.661.1-.305.2-.509.305-.763v-.153h.051l.051-.356c.153-.1.1-.356.305-.509.1-.1.305-.254.254-.458.254.1.763-.153.763.153.254.153.1.661.407.763.153.305.051.814.305,1.017,0,.1-.051.2.051.2l.051.763Z" transform="translate(-132.326 -89.854)"/>
    <path id="Path_573" data-name="Path 573" class="cls-4" d="M218.925,202.584c-.61-1.323-1.017-2.7-1.628-4.07-.763-2.391-1.831-4.68-2.747-7.071-.458-.865-.712-1.831-1.17-2.7-.254-.814-.61-1.628-.916-2.493-.407-.814-1.424-.916-2.34-.865a14.893,14.893,0,0,0-3.459.61,2.489,2.489,0,0,0-1.221,1.628c-1.628,4.578-3.51,9.055-5.087,13.684-.2.61-.56,1.323-.2,1.933a7.949,7.949,0,0,0,3.764,2.238c1.526.356,1.221-1.526,1.73-2.289a1.163,1.163,0,0,1,1.17-.814l4.07-.1c.61.1,1.373-.153,1.78.356.509.763.712,1.679,1.221,2.493,1.424.916,2.7-.305,3.968-.865C218.212,203.754,219.077,203.4,218.925,202.584Zm-8.9-5.443a3.739,3.739,0,0,1-1.984-.1v-1.221c.051-.1.2-.153.153-.356.2-.153.153-.458.305-.661v-.1c.153-.1.1-.356.2-.56h.661c.1.305.305.356.356.712.305.254.254.865.56,1.119C210.328,196.276,210.633,197.242,210.022,197.141Z" transform="translate(-98.366 -90.887)"/>
    <path id="Path_574" data-name="Path 574" class="cls-1" d="M52.705,179.415c.509.56.254,1.424.2,2.086a1.8,1.8,0,0,1-1.119,1.068c-.661-.1-1.424.254-1.933-.2a2.38,2.38,0,0,1-.967-1.628,2.252,2.252,0,0,1,1.272-2.086A2.222,2.222,0,0,1,52.705,179.415Z" transform="translate(-24.119 -87.507)"/>
    <path id="Path_575" data-name="Path 575" class="cls-4" d="M53.789,180.461a1.331,1.331,0,0,1-.1,1.17,1.312,1.312,0,0,1-1.272.458,1.235,1.235,0,0,1-.865-.712,1.313,1.313,0,0,1,.153-1.068,1.791,1.791,0,0,1,.967-.509A1.1,1.1,0,0,1,53.789,180.461Z" transform="translate(-25.407 -88.146)"/>
    <path id="Path_576" data-name="Path 576" class="cls-4" d="M294.351,216.7l-.051.2Z" transform="translate(-144.694 -106.275)"/>
    <path id="Path_577" data-name="Path 577" class="cls-4" d="M91.991,190.07a73.845,73.845,0,0,0,7.783,3.866c.305.254.2.661.1.966-2.493,5.036-3.154,10.937-6.155,15.77a4.232,4.232,0,0,1-3.663,2.289,2.1,2.1,0,0,1-1.73-.967,18.778,18.778,0,0,1,.305-5.087c.051-.254.153-.56.458-.61.356-.1.967.61,1.017-.1-.305-1.628-.56-3.307-.763-4.934.1-3.459.305-7.173,1.475-10.327C91.025,190.426,91.381,189.612,91.991,190.07Z" transform="translate(-43.464 -93.125)"/>
    <path id="Path_578" data-name="Path 578" class="cls-4" d="M15.72,212.488a18.422,18.422,0,0,0,.865,3.764c.916,2.493,1.78,4.884,2.8,7.274.1.509-.305.865-.61,1.17a48.809,48.809,0,0,1-7.274,5.748,2.124,2.124,0,0,1-1.984.2,8.851,8.851,0,0,1-4.222-6.155l-.1-.305a7.333,7.333,0,0,1,.661-4.68,10.974,10.974,0,0,1,2.391-2.7c2.187-1.78,4.324-3.357,6.461-5.341C15.466,210.962,15.517,212.03,15.72,212.488Z" transform="translate(-2.599 -103.64)"/>
    <path id="Path_579" data-name="Path 579" class="cls-4" d="M34.786,225.559a3.01,3.01,0,0,1,.051.966c-.356,0-.407-.458-.61-.712-.051-.305-.305-.712-.1-1.017C34.481,224.745,34.684,225.152,34.786,225.559Z" transform="translate(-16.832 -110.25)"/>
    <path id="Path_580" data-name="Path 580" class="cls-1" d="M57.262,240.513c-.2.305-.61.254-.967.407a1.841,1.841,0,0,0-.916,1.73,1.221,1.221,0,0,0,.61,1.017,2.109,2.109,0,0,0,1.831.051c.305-.153.509-.509.814-.61a1.533,1.533,0,0,1-.254,1.068,2.953,2.953,0,0,1-1.933.967,2.655,2.655,0,0,1-2.391-1.628,2.526,2.526,0,0,1,.61-2.7,2.373,2.373,0,0,1,2.289-.458C57.161,240.36,57.212,240.411,57.262,240.513Z" transform="translate(-26.591 -117.828)"/>
    <path id="Path_581" data-name="Path 581" class="cls-1" d="M58.046,245.928c-.967,3.612-3.612,6.766-6.054,9.665a4.517,4.517,0,0,1-2.086,1.475,2.72,2.72,0,0,0-1.882.509,22.646,22.646,0,0,1-5.087,1.882c-.509,0-1.17.2-1.475-.305a.87.87,0,0,1-.051-.865c.916-.814,2.086-1.119,3-1.831A98.266,98.266,0,0,0,55.1,247.912c.2,0,.2-.305.356-.356a27.723,27.723,0,0,1,2.391-1.882C57.995,245.572,58.1,245.775,58.046,245.928Z" transform="translate(-20.405 -120.496)"/>
    <path id="Path_582" data-name="Path 582" class="cls-4" d="M53.93,283.651c1.017.407.661,1.78.763,2.594-.051,1.374-.153,2.8-1.221,3.764a4.706,4.706,0,0,1-2.289,1.373c-2.7.254-5.545.305-8.139.763-2.95.356-5.494,1.475-8.139,2.289-.712,0-1.017-.661-1.221-1.17-.56-1.628-1.577-3.154-1.984-4.884.305-.61.967-.814,1.475-1.068l2.594-.763a22.6,22.6,0,0,1,4.578-.305l2.7.305a37.518,37.518,0,0,1,3.968.967c.305.1.763.356,1.017.051-.1-.661-.712-1.119-.967-1.679-.1-.712-.712-1.373-.356-2.086a1.822,1.822,0,0,1,.56-.2Z" transform="translate(-15.679 -139.143)"/>
    <path id="Path_583" data-name="Path 583" class="cls-4" d="M38.776,284.309c.1.153-.051.305-.2.407a25.505,25.505,0,0,1-3.357.509,29.63,29.63,0,0,0-6.867,1.831,1.17,1.17,0,0,1-1.221-.254.191.191,0,0,1,0-.305,34.995,34.995,0,0,1,4.782-1.526c1.933-.56,4.019-.763,6-1.17A1.209,1.209,0,0,1,38.776,284.309Z" transform="translate(-13.395 -139.241)"/>
    <path id="Path_584" data-name="Path 584" class="cls-4" d="M23.119,293.246a.194.194,0,0,1-.153.254c-.305-.2-.763-.254-.967-.56.153-.305.56-.1.814-.051Z" transform="translate(-10.914 -143.651)"/>
    <path id="Path_585" data-name="Path 585" class="cls-4" d="M27.56,294.181a3.717,3.717,0,0,1,.865,1.73c.1.305-.153.56-.407.763a.655.655,0,0,1-.61-.051,4.474,4.474,0,0,1-.56-2.7C27.153,293.672,27.305,294.13,27.56,294.181Z" transform="translate(-13.268 -144.179)"/>
    <path id="Path_586" data-name="Path 586" class="cls-4" d="M12.81,294.5c-.1.458-.61.509-.967.56a.428.428,0,0,1-.356-.2c-.051-.254.051-.61.305-.61A.852.852,0,0,1,12.81,294.5Z" transform="translate(-5.743 -144.343)"/>
    <path id="Path_587" data-name="Path 587" class="cls-4" d="M48.607,305.5c.356.916-.56,2.137.509,2.8a3.507,3.507,0,0,1,1.424.763c.1.2-.1.305-.305.305a31.572,31.572,0,0,0-3.815.1c-.967-.1-.916-1.17-1.068-1.831.051-.56-.305-1.424.356-1.73A6.357,6.357,0,0,1,48.3,305.2Z" transform="translate(-22.361 -149.751)"/>
    <path id="Path_588" data-name="Path 588" class="cls-4" d="M19.533,308.31c-.1.814.2,1.831-.458,2.391a3.719,3.719,0,0,1-2.238.763c-.2-.1-.2-.509-.1-.712.458-.763,1.73-.254,1.882-1.323a10.506,10.506,0,0,1,.763-1.73C19.584,307.8,19.482,308.056,19.533,308.31Z" transform="translate(-8.294 -150.983)"/>
    <path id="Path_589" data-name="Path 589" class="cls-6" d="M210.793,77.112c-.254,1.628-1.017,3.052-.763,4.782-.916,1.526-1.221,3.307-2.086,4.833-.56,1.526-1.526,2.849-2.137,4.375a33.188,33.188,0,0,1-3.256,5.24,4.715,4.715,0,0,1-1.475,1.831c-.2-.051-.1-.305-.1-.458a54.509,54.509,0,0,0,4.884-8.292,57.827,57.827,0,0,0,2.442-6.054l.458-1.73c.458-1.424.56-2.9.916-4.426.2-.407.61-.56.967-.814C211,76.451,210.844,76.909,210.793,77.112Z" transform="translate(-98.831 -37.346)"/>
  </g>
</svg>
