<svg xmlns="http://www.w3.org/2000/svg" viewBox="-515 837 190 73.117">
  <defs>
    <style>
      .cls-1 {
        fill: #2d2d2f;
        fill-rule: evenodd;
      }
    </style>
  </defs>
  <g id="Group_235" data-name="Group 235" transform="translate(-515.038 837.024)">
    <path id="Path_590" data-name="Path 590" class="cls-1" d="M135.343,1.623c1.265,2.688.316,5.85.949,8.855.158,4.744.316,9.962.791,14.863,0,4.585.949,8.855.791,13.282.632,5.692.791,11.859,1.265,17.235-.158,4.269.316,8.7.474,13.124a5.024,5.024,0,0,1-2.53,3.162,26.554,26.554,0,0,1-16.128-2.53c-1.265-.791-1.265-2.372-1.581-3.637-.632-4.744-.158-10.12-1.739-14.231-.949-1.265-2.846-.791-4.269-.632a4.861,4.861,0,0,0-2.688,3.637c0,4.427.791,8.855.791,13.44a4.094,4.094,0,0,1-2.056,3.162c-5.85,2.53-12.808.632-17.551-2.53-1.739-1.581-1.107-4.111-1.423-6.325C89.488,44.632,87.749,26.764,86.8,9.055c0-2.53,2.688-4.111,4.744-5.376A27.882,27.882,0,0,1,103.719.358,4.484,4.484,0,0,1,107.2,1.939l.474.949c.791,8.222.474,16.128,1.423,24.192a3.207,3.207,0,0,0,2.214,1.739c1.739-.158,3.795,0,4.9-1.423l.632-1.739c-.158-5.692-.316-11.7-.632-17.235C118.74,2.256,125.7,1.465,131.548.2A4.581,4.581,0,0,1,135.343,1.623Z" transform="translate(50.426 0.13)"/>
    <path id="Path_591" data-name="Path 591" class="cls-1" d="M53.9,27.283c-1.423-8.538-3.162-17.077-9.645-23.56L41.563,1.984c-8.855-2.53-18.342,0-26.248,2.688C11.363,6.885,6.935,9.257,4.88,13.526,1.559,19.377.927,26.492.452,33.45A63.364,63.364,0,0,0,.768,49.894c.474,4.427,2.846,8.064,5.218,11.7,3.162,4.111,7.432,7.432,12.491,8.538,12.491,2.688,24.509-1.107,32.256-10.91C55.478,49.894,55.162,38.035,53.9,27.283ZM31.6,48.313c-.632,2.214-.791,4.9-3.162,5.85-2.846,0-3.637-3.321-4.269-5.376-2.53-8.7-3.321-19.291-.474-28.145.791-1.107,1.265-2.846,2.846-3s2.53,1.423,3,2.53C33.183,28.706,32.709,38.984,31.6,48.313Z" transform="translate(0 0.56)"/>
    <path id="Path_592" data-name="Path 592" class="cls-1" d="M99.4,10.608C96.079,4.441,89.6,1.6,83.113.488c-12.491-2.214-23.4,3.162-33.68,8.064-2.53,1.581-5.692,2.53-7.115,5.376-2.056,5.218-.791,11.859-.316,17.393.316,1.107.791,2.846,2.214,3,2.53-1.423,4.427-3.953,7.115-5.06,1.107,0,1.265,1.423,1.581,2.53L53.7,57.728c.632,3-.791,7.59,1.739,9.962,4.744,3.162,10.12,5.692,16.128,5.376a2.922,2.922,0,0,0,1.739-2.688c-.316-5.06-.474-10.12-.632-15.5-.158-2.688,3-3,4.585-4.269.949-.632,1.423-3,3.162-1.9,4.111-1.9,8.222-4.111,11.227-7.432,3.953-2.53,6.483-6.8,8.064-10.91C103.352,24.523,102.246,16.459,99.4,10.608ZM76.946,30.057c-1.265.949-2.53,2.846-4.269,2.53-.791-1.423-.791-3.162-.791-5.06a24.275,24.275,0,0,1,.474-7.59c2.372-.791,6.167-1.9,7.748.949C81.532,24.523,78.844,27.527,76.946,30.057Z" transform="translate(23.912 0)"/>
  </g>
</svg>
