<?xml version="1.0" encoding="utf-8"?>
<!-- Generator: Adobe Illustrator 21.1.0, SVG Export Plug-In . SVG Version: 6.00 Build 0)  -->
<svg version="1.1" id="Group_242" xmlns="http://www.w3.org/2000/svg" xmlns:xlink="http://www.w3.org/1999/xlink" x="0px" y="0px"
	 viewBox="0 0 392.9 324.1" style="enable-background:new 0 0 392.9 324.1;" xml:space="preserve">
<style type="text/css">
	.st0{fill:#2D2D2F;}
	.st1{fill:#D4B65D;stroke:#D4B65C;stroke-width:0.5;}
	.st2{fill:#F4EEE4;}
	.st3{fill:#FFFFFF;}
	.st4{fill:#D4B65C;}
	.st5{fill:none;stroke:#2D2D2F;stroke-width:0.5;stroke-miterlimit:10;}
	.st6{fill:#D4B65C;stroke:#D4B65C;stroke-width:0.5;}
</style>
<path id="Path_461" class="st0" d="M221.5,104c-3.5,5.7-6.3,11.6-10.1,17.2c-4.5,6.8-10,12.6-15.5,18.8c-3.4,3.1-7.1,5.9-11.1,8.3
	c-1.9,1.5-4.2,2.6-6.6,3.1c-1.3,0.9-2.8,1.4-4.3,1.5c-3.4-0.2-6,1.9-9.5,1.2c-1.6,0-3-0.8-4.5-1.2c-2,0.2-4.5,0.4-6.2-0.5
	c-2.4-0.7-3.6-3.4-5.5-4.7c-1.3-2.1-1.5-4.6-2.4-6.9c-1.1-2.3-1.3-4.9-2.1-7.2c-0.2-3.2,0.2-6.2,0.2-9.4c-0.5-3.6,1.7-6.2,2.4-9.4
	c5-16.6,13.5-31.9,24.5-46c5.3-7,11.6-13.2,18.6-18.4c1.5-1.1,3.3-1.7,4.9-2.7c1.7-1,3.6-1.7,5.6-1.9c3.4-0.9,6.8-1.6,10.4-2.2
	c8.1,0.3,16.9,1.3,20.7,9.2c1.6,4.4,2.4,9,2.4,13.7c0,1-0.3,2.1-0.9,2.9c0.5,1.7-0.2,3.5-0.4,5.2c-1.2,6.6-2.9,13.2-5.2,19.5
	c-0.8,1.5-1.4,3.1-2,4.7L221.5,104z"/>
<path id="Path_462" class="st1" d="M219.7,48.2c0.9,1.2,3.2,1.3,2.8,3.3c-1.1,3.6,0.3,7.4,0,11.2l-0.2,3.8c-0.6,1.9-0.2,4.3-1.2,5.9
	l-0.6-0.2l-2.8-2.4c-2.7-4-6.4-8.5-11.3-9.3c-4.5-1.1-8.9,0.8-12.9,2.4c-1.4,0.6-2.6,2.3-4.3,1.9c-0.6-1.1-1.6-2-2.8-2.5
	c-0.8-0.2-1.6-0.2-2.3,0.2c-1.4,1-1.3,2.7-1.4,4.2c0.1,1.1,1.2,2.1,0.6,3.3c-4.5,4.8-9.6,9.8-13.1,15.4c-4,5.4-7.3,11.2-10,17.4
	c-3.8,8.2-5.9,17.1-6.3,26.1c-0.1,0.6-0.5,1.2-1,1.5c-1,0.1-2,0.3-2.4,1.3c-0.5,1.2-0.2,2.5,0.6,3.4c0.8,0.7,1.9,1,2.9,0.8
	c1.2,0,2.7-1.6,3.7-0.1c1.1,1.4,2.8,2,3.9,3.4c-0.2,2-2.4,3.5-2.2,5.8c0.2,1.3,1.1,2.5,2.3,3c4.1,1.9,6.8-2.4,9.6-4.5
	c5.9-3.6,12.4-7.1,17.3-12.1c3.7-3.2,7.1-6.7,10.1-10.5c0.3-0.5,1-1.2,1.5-1.1c-0.6,1.5-2.2,2.4-3,3.9c-1.5,2.6-4.3,4.1-5,7
	c0.1,1,1.1,1.2,1.8,1.5c1.9,0.5,3.5-0.7,4.5-2.2c0.2-1.1,1.2-1.5,1.9-2.4c3.2-3.9,6.2-8.1,8.7-12.5c3.4-5.7,6.4-11.6,9.2-17.5
	c1.5-3.4,3.4-6.8,3.5-10.7c1.9-2,2.1-4.8,2.9-7.2c0.7-3.8,1.6-7.5,2.7-11.2l0.1-0.1c0.4,1.2-0.2,2.7,0.1,4
	c-0.6,5.8-1.1,11.8-2.9,17.3c-0.6,1.5-1.3,3-2.2,4.4c-2.5,5.6-5.4,11.1-8.8,16.2c-2.8,5.1-6.1,9.8-9.2,14.7
	c-3.2,4.9-7.2,9.3-11.8,12.9c-0.4,0.1-0.6-0.2-0.7-0.5c0.2-1.3,0.1-2.7-0.1-4c-0.5-0.5-1.2-0.2-1.7,0c-6.3,5.1-13.1,10.3-20.2,14
	c-3,1.5-6,3.2-9.7,3.2c-1.9-0.3-3.5-1.9-4.9-3.2c-2.8-1.5-5.8-4-6.2-7.4l-1.3-5.4c-0.5-8.4,1.5-16.5,3.5-24.2
	c2.7-10.4,8.6-19.5,14.3-28.4c7.6-11.3,16.5-23.3,28.4-30.6c3.1-2.3,7-2.9,10.6-4.1c1.8-0.2,3.5-0.6,5.3-0.7
	C213.1,47.3,216.6,47.3,219.7,48.2z"/>
<path id="Path_463" class="st0" d="M41.8,1.4c10.5,2.4,20.1,7.5,30,11.8c1.1,1.1,2.8,1,4.1,1.6c1.9,0.8,4.3,2.4,6.5,1.1
	c3.2-0.4,6.1-1.5,9.3-1.9c1.7-0.4,3.5-0.7,5.3-0.7c5.2-0.7,10.6-0.7,15.8,0c1.9,0.2,3.5,0.8,5.3,1.1c5,1.7,10.5,4.4,13.4,9.3
	c2.2,4.4,4.6,8.6,4.5,13.9c0.2,2.2-0.5,4.1-0.4,6.2c-0.7,1.5-1.2,3-1.6,4.6l-2.2,4.9c0.6,0.9-0.2,1.6-0.8,1.9
	c-1.5,0.7-2.9,1.9-3.8,3.3c-1.2,1.5-2.8,2.4-4.1,3.8l-5.3,4.3c-5.1,3.5-10.5,6.7-16,9.6c-3.3,1.8-6.5,4.2-9.6,6.2
	c-3.1,2.4-6.5,4.7-9.2,7.6c-1.4,1.5-2.6,3.2-3.7,5c-0.2,1.5-0.6,3.6,0.5,4.8c2.7,2.1,3.6,5.2,5.1,7.9c1,0.5,2-0.2,3-0.4
	c5.6-2.1,11.8-0.9,16.2,3.2c3.4,3.4,4.8,8.2,3.7,12.9c-0.9,5-5.3,9.2-9.8,11.1c-1.9,0.8-4,1.1-5.9,1.7c-1.5,1.5-1,3.8-1.5,5.7
	c-0.5,2.2-1.3,4.3-2.4,6.3c-1.1,1.2-1.9,2.9-3.4,3.8c-4.8,2.1-10,0.2-14.3-1.7c-2.1-0.6-3.7-2.2-5.8-2.9c-0.6-0.4-1.4-1.1-2.2-0.9
	c0.1,1,0.5,2,1.1,2.9c2.3,3.8,4.8,7.4,7.5,10.9c0.6,1,1.8,1.9,1.4,3.1c-0.8,1-2,1.3-2.8,2.2c0.8,0.4,1.6-0.1,2.5-0.2
	c3.6-1.1,8.3-1.2,11.1,1.5c3.7,3,4.9,7.5,6,11.9c0.7,2.2,0.3,4.5,1.1,6.6c0.2,0.2,0.4,0.3,0.6,0.2c2.1-2.2,2.4-5.1,3.4-7.9
	c1.1-4.7,3-9.2,5.5-13.3c1.5-2.3,3.6-4.5,6.5-4.9c4.4-1.2,8,1.3,12.5,0.6c2.1-0.4,4.1-1,6-1.9c0.7-0.2,1.2,0.5,1.4,1.1l1.1,3.3
	c0.6,1.2,2.1,0.6,3.2,0.6c7.1-1.1,14.2-2.2,21.2-3.5c19.7-2.9,39.4-6.1,59.1-9.1c0.9-0.1,2-0.4,2.8,0.1c0.5,0.5,0.1,1.1-0.2,1.6
	c-2.1,3.9-4.4,7.7-6.9,11.4l-1.3,1.1c-4.9,1.1-10,1.6-15,2.4c-6.9,1.1-13.7,2.3-20.6,3.3c-1.2,0.3-2.7,0.1-3.8,0.8
	c-3-0.2-5.6,1-8.5,1c-3.6,0.6-7.1,1.5-10.9,1.5c-2-0.2-3.3-2.3-5-3.4c-1.5-1.3-2.8-2.7-4.5-3.3c-3.2,0.1-6.3,0.6-9.4,1.5
	c-1.8,1.3-1.5,3.8-1.2,5.8c-0.6,2.4-0.9,5-2.4,7.1c-1.9,1.5-1.8,4-3.6,5.3c-1.6,1.5-3.8,1.5-5.8,1.9c-0.6,0.3-1.1,0.7-1.5,1.2
	c-0.2,2.4,2.4,3.4,3.7,4.9c0.4,0.6-0.1,1.4-0.3,2c-2.1,3-3.8,6.3-4.9,9.8c-2.6,7.5-3.7,15.6-7.5,22.8c-2.3,3.6-4.9,7.8-8.8,9.6
	l-3.9,0.6c-0.8,0.1-1.7-0.6-2.4,0.2c-0.9,1.6-0.4,4.1-0.4,5.8c0.8,8.7,2.8,17,4.3,25.4c0.9,3.2,1.9,6.4,2.8,9.6
	c0,0.8-0.9,0.9-1.4,1.1c-4.1,0.6-8.3,0.7-12.4,1.4c-0.8,0.4-0.8,1.2-0.8,2c0.6,6.2-1.5,12.2-6.6,15.7c-3.2,2.3-7.7,1.5-11.6,2
	c-0.7,0.2-1.2,0.8-1.4,1.5c-0.7,3-1.7,5.9-2.2,9c0,1.6,1.3,2.8,1.5,4.3c0.5,1.7,1,4,0,5.6l-1.3,0.6c-5.4,0.2-10.9,0.2-16.3,0.3
	c-0.6-0.1-1.1-0.6-1.1-1.2c-0.1-3.2,0.5-6.4,1.7-9.3c-0.1-1.6-0.5-3.2-1.2-4.7c-0.4-0.8-1.4-0.6-2-0.3c-1.4,0.4-2.8,1.2-4.2,1.1
	c-1.9-1.5-2.2-3.8-3.4-5.7c-0.2-0.8-0.7-1.5-1.4-2c-0.8-0.1-1.5,0.3-1.8,1.1c-1.3,3.7-2.1,7.7-3.1,11.6c-0.2,0.6,0.5,1,0.9,1.1
	c3.1,0.5,7.1-1.1,8.9,1.9c0.3,1,0.7,2.4,0.2,3.4c-1,3.2-4.8,2.5-7.5,2.7c-4.1,0.1-8.8,0.5-12.6-0.4c-1.3-0.7-2.1-2.1-2.1-3.6
	c-0.5-4.6-0.6-9.6-1.1-14.3c-0.2-0.6-0.3-1.5-1-1.8c-1.1-0.2-2.5,0.3-3.3-0.6c-0.9-2.1-0.6-4.9-0.8-7.3c-0.1-1.2-0.4-3,1.1-3.5
	l7.4-1c1.6-0.9,3.3-1.6,5.1-2.1c1.6-0.8,1.2-2.8,1.9-4.2c1.6-7.9,2.6-16,2.9-24.1c0.3-4,0.3-8-0.2-11.9c-0.2-0.4-0.7-0.6-1.2-0.4
	c0,0,0,0,0,0c-3.2,1.9-5.8,5.1-9.4,6.2c-2.4,0.6-4.8-0.3-6.4-2.1c-4.2-3.9-6.2-9.2-7.5-14.7c-1.5-7.5,2.4-13.9,3.7-20.8
	c1.4-6.6,1.6-13.5,2.3-20.5c0.1-3,0.5-6,1.2-9c0.5-2.9,1.6-5.7,3.1-8.3c2.1-2.8,5-4.9,8.3-6c2-1.1,4.5-1,6.6-1.6
	c3.9-0.8,7.9-1.8,10.7-4.8c0.3-0.4,0.3-0.9,0-1.3c-4-2.7-8.1-6.1-10.5-10.3c-1.3-2.1-2.5-4.2-3.4-6.5c-1.8-2.3-5.8-0.1-7.9-2
	c-2.5-0.2-4.4-1.7-6.2-3.2c-3.2-3-4.5-7.5-3.4-11.7c1.4-5.2,6.6-8.6,11.8-9.2c0.6,0,1.1-0.2,1.5-0.6c1.3-2.2,1.5-5,2.7-7.3
	c0.8-2.1,1.9-4.1,3.1-6c0.2-1.6-0.8-2.8-1.5-4.1c-6.4-11.4-11.7-23.3-16-35.6c-0.4-1.8-1.1-3.5-1.8-5.2c-2.9-9.2-5-18.6-6.1-28.2
	c-0.7-9.6,0-19.5,7-26.5c4.8-4.6,10.2-8.5,16.9-9c2.2,0.1,4.1-0.4,6.2-0.3C34.2-0.1,38.1,0.3,41.8,1.4z"/>
<g id="Group_230" transform="translate(-855.786 44.615)">
	<path id="Path_464" class="st2" d="M934,58.2c1.9,1.9,2.5,4.5,3.7,6.8c0.5,1.5,0.6,3.2,1.3,4.6c0.3,0.4,0.9,0.8,1.4,0.4
		c1.9-1.9,4-3.7,6.6-4.4c4.6-1.2,9.5,0.6,12.2,4.5c1.1,1.4,1.2,3.1,1.6,4.8c0,5-2.9,9.5-7.5,11.4c-2.7,1.5-6.1,1-9.1,1.1
		c-1.2,0.6-0.2,2.4-0.6,3.6c-0.4,4.1-1.1,8.5-3.8,11.8c-1.2,1.5-3,2.2-4.9,1.9c-4.9-1-9.6-3-13.8-5.8c-0.2-0.4-0.8-0.9-0.5-1.5
		c3-3.6,7.1-7.1,8.5-11.8c0.4-2,0.7-4.6-0.6-6.3c-1.4-1.9-3.8-2.1-6-1.6c-0.9,0.3-2.5,0.3-2.4,1.5c1,1.1,2.8,0.2,3.5,1.8
		c1.4,1.2,1.1,3.6,0.6,5.2c-0.9,3.6-4.2,5.9-7.3,7.7c-4.4,3.2-9.2,7.8-7.9,13.7c0.2,0.6,0.7,1,1.2,1.3c1.9,0.2,0.7-2.2,1.2-3.1
		c0.1-1.3,0.9-2.5,2.1-3.2c0.5-0.1,0.7,0.4,1.1,0.6c2.6,4.5,5.7,8.8,8.3,13.3c0.2,1.7-1.7,2.1-2.8,2.8c-4.5,2-9.4,2.8-14.3,2.2
		c-6.1-0.6-11.8-3.2-16.1-7.5c-2.9-2.8-5.3-6.2-7.1-9.9l-1.1-4.3c-1-1.1-2.8-0.5-4.1-1c0.9-0.4,1.8-0.7,2.8-0.9
		c0.7-0.2,1.3-0.6,1.8-1.1c-0.1-1.7-2.1-0.4-3.2-0.9l-2.2-0.2c1.3-0.2,3.1-0.1,3.6-1.6c-0.2-2.9-0.6-6.1-3.3-7.7
		c-0.3-0.1-0.6-0.2-0.8,0.1c-0.6,1.2-1,2.5-1.4,3.8c-0.4,1.1-1.1,2.3-0.6,3.6c0.5,0.8,1.4,1.5,2.3,1.8c-2,0.2-3.8-0.7-5.8-1.1
		c-0.3,0.2-0.7,0.5-0.6,0.9c-0.1,0.7,1,1.1,1.1,1.7h-0.4c-3-1.5-4.8-4.7-4.5-8c0.4-2.8,2.2-5.2,4.8-6.2c2.4-1.4,5.4-1.5,8.2-1.2
		c0.5,0,0.6-0.5,0.8-0.8c0.3-1.8,1.1-3.7,0.6-5.5c1.5-1.2,1.3-3.2,2.1-4.6c1.1-2.1,2.4-4.1,4-5.9c2.9-2.6,6.3-4.6,10-5.8
		c2.9-1.1,5.9-1.9,9-2.5c3.3-0.8,6.6-1.3,10-1.6c4.4-0.2,8.8,0.1,13.1,1.1C930.7,56.4,932.4,57.1,934,58.2z"/>
	<path id="Path_465" class="st2" d="M972.9,120.4c0.6,0.6,1.9,1.1,1.7,1.9c-2.4,0.8-4.4-0.4-6.2-1.4c-1.1,0-1.6,1.4-2.5,1.7
		c-1.4,1.8-5.4-0.1-4.9,3.4c0.4,2.2,3.6,0.3,4,2.4c-0.2,2.7-1.6,5.1-3.9,6.5c-0.6,0.3-1.5,0.9-1.5,1.8c0.5,0.7,1.3,0,1.9,0
		c1.1-0.3,1.7-1.5,3-1.1c0.7,0.7,1.2,1.5,1.4,2.5c-0.3,1.5-1,2.8-0.9,4.4c-0.4,0.6-1.1,0.3-1.5,0l-4.8-3.6c-0.6-0.2-1.1,0.1-1.4,0.6
		c0.2,2,3,2.8,2.8,4.9c-2,1.8-3.8-0.8-5.6-1.5c-0.6-0.6-1.9-0.9-1.9-2.1c-0.1-4.6,1.7-8.7,3.2-12.7c0.6-3.2,3.1-5.7,5.1-8.1
		c2.8-1.9,6.2-2.7,9.5-2.1C971.5,118.2,972,119.7,972.9,120.4z"/>
	<path id="Path_466" class="st2" d="M979.3,118.3c-0.1,0.4-0.3,0.9-0.7,1c-1,0.2-2.2,0.2-2.8-0.6c0-0.6,0.6-0.5,0.9-0.6
		C977.5,117.9,979,117.1,979.3,118.3z"/>
	<path id="Path_467" class="st2" d="M970.6,125.8c0.1,0.6,0.4,1.6-0.2,1.9c-0.3,0.2-0.6,0.2-0.9,0.1c-0.6-0.5-1-1.3-1.1-2.1
		c0.2-0.3,0.5-0.5,0.9-0.6C969.8,125,970.4,125.3,970.6,125.8z"/>
	<path id="Path_468" class="st2" d="M977.5,125.8c-0.3,1.1-1.6,1.6-2.5,2.1c-0.5,0.2-1.1,0-1.4-0.5c0,0,0-0.1,0-0.1
		c-0.1-0.6,0-1.4,0.6-1.6c1.1-0.2,2.1-0.3,3.2-0.2L977.5,125.8z"/>
	<path id="Path_469" class="st2" d="M978.5,130.8c-0.5,1.6-1.9,2.7-3.6,2.8c-0.5,0.2-0.8-0.1-1.1-0.5c-0.2-0.5-0.1-1.1,0.2-1.5
		c1.4-0.6,2.7-1.5,4.3-1.3L978.5,130.8z"/>
	<path id="Path_470" class="st2" d="M970.6,131.8c0.2,0.4,0,0.9-0.4,1.1c-0.1,0-0.1,0.1-0.2,0.1c-0.6-0.2-1.5-0.7-1.5-1.5
		c0-0.2,0.1-0.6,0.4-0.6C969.6,130.9,970.2,131.3,970.6,131.8z"/>
	<path id="Path_471" class="st2" d="M969.5,136.5c-0.3,0.1-0.4-0.1-0.6-0.3C969.1,135.8,969.8,136.1,969.5,136.5z"/>
	<path id="Path_472" class="st2" d="M976.1,136.2c-0.2,0.6-0.8,0.8-1.3,1c-0.2,0.1-0.4-0.1-0.6-0.2
		C974.6,136.4,975.4,136.1,976.1,136.2z"/>
	<path id="Path_473" class="st2" d="M969.4,140.3c0,0.5-0.2,1-0.6,1.4c-0.4,0.2-0.5-0.3-0.6-0.6c-0.1-0.5,0.2-1.1,0.6-1.4
		C969.1,139.5,969.6,139.9,969.4,140.3z"/>
	<path id="Path_474" class="st2" d="M974.9,140.6c-0.2,0.5-0.6,0.9-1.1,1.1c-0.3,0.1-0.8,0-0.8-0.3c0-0.6,0.4-1.1,1-1.1c0,0,0,0,0,0
		C974.2,140.2,974.9,140,974.9,140.6z"/>
	<path id="Path_475" class="st2" d="M906,155.5c2,1.5,4.5,2.3,6.1,4.4c-0.4,2.4,1.8,3.8,2.5,5.8c0.6,1.7,2.2,3.1,1.5,5.2
		c-0.2,0.6-0.4,1.5-1.1,1.5c-0.5,0-0.7-0.6-1-1c-0.6-1.5-0.2-3.5-1.7-4.5c-0.2-0.6-0.2-1.3-0.9-1.5c-0.5-0.2-1.1,0-1.4,0.5
		c-0.3,1.6-0.1,3.3,0.6,4.8c0.9,2.4,2,5.5,0.9,8.1c-0.5,0.6-0.9,1.1-1.6,1.1l-0.5-0.3c-0.8-2.9-1.3-6.1-2.7-8.8
		c-0.4-0.7-1.1-1.2-1.9-1.2c-0.5,0.1-0.9,0.4-1.1,0.8v1.4c0.7,2.7,2.3,5,2.4,8c0.1,1.2-0.5,2.4-1.6,3c-0.6,0.2-0.8-0.4-1-0.8
		c-0.3-2.8-1.1-5.8-3.9-7.1c-0.5-0.1-1.1,0.2-1.3,0.7c0,1,1,1.5,1.2,2.4c1,1.9,1.2,5.2-0.2,7.1c-0.5,0.6-1.4,0.9-2.2,0.6
		c-0.7-0.4-1.1-1.2-1.1-2c-0.1-1.5,1.9-1.1,2.3-2.3c-0.7-1.1-2.1-1.1-3-2.2c-2.1-1.6-3.7-3.7-4.5-6.2c-1.4-1.9-5-0.9-5-4.1
		c-0.4-5.7,0.2-11.8,5.4-14.7C895.9,151.8,901.7,153.7,906,155.5z"/>
	<path id="Path_476" class="st2" d="M920.4,161.3c0,1-0.7,1.9-1.6,2.2c-1.1,0.4-1.7-0.5-2.2-1.2c-0.3-0.4-0.4-0.9-0.3-1.4
		c0.9-0.6,1.7,0.2,2.5-0.3C919.4,160.7,920.2,160.6,920.4,161.3z"/>
</g>
<path id="Path_477" class="st3" d="M38.7,5.3c7.8,1.9,15.2,5.1,22.5,8.2c4.8,2.2,9.7,3.7,14.4,6.3c1.5,0.5,2.9,1.2,4.1,2.2
	c0.2,0.8-0.8,0.9-1.3,1.2c-4.7,1.8-9.5,3.4-14.3,4.7c-5.3,1.3-10.6,2.5-16.3,2.4c-2.4-0.2-5.1,0.1-7.3-0.6c-2.7-0.3-5.3-1-7.8-1.9
	c-3.1-1.3-6-3-9-4.6c-1.4-0.6-1.7-2.7-3.2-2.4c-0.5,0.6,0.1,1.4,0.3,1.9c2.9,5,8.2,8.6,13.5,10.4c7.7,2.4,15.8,3,23.7,1.8
	c10.7-1.5,20.3-5.4,30.2-8.8c4.9-1.7,10-2.8,15.2-3.2c5.8-0.6,11.4,0.5,16.7,1.9c0.3-0.1,0.6-0.1,0.8-0.4c-0.2-1.5-1.8-1.8-2.7-2.8
	c-2-1.2-4.2-2.2-6.4-3l-0.2-0.2c2.1,0.2,4.3,0.6,6.3,1.3c5.4,1.8,9.6,6.2,11.2,11.7c0.6,2.3,0.9,4.7,0.7,7.1
	c-1.4,5.9-5.3,10.7-9.4,15.3c-5.7,6.1-12.5,11-19,16c-3.6,3.2-8.2,5-11.9,7.8c-4.6,3.4-8.8,7.6-12.2,12.2c-1.1,2-2,4-2.6,6.2
	c-0.6,0.7-1.5,0.2-2.2,0.2C63,94,52.7,95.7,44.1,98.3c-4.6,1.5-9.1,3.6-13.5,5.5c-1.4-0.2-1.9-1.8-2.7-2.8c-4.7-8-8.4-16.5-12.1-25
	c-3.2-8.2-6-16.7-8.3-25.2C6,44.3,5,37.6,4.5,30.9C5.2,25.5,5,19.5,8.7,15.3c2.3-3.1,5-5.8,8-8.1c3.4-2.6,7.5-3.5,11.9-3.5
	C32,3.8,35.4,4.4,38.7,5.3z"/>
<path id="Path_478" class="st0" d="M112.2,28.2c0.1,0.6-0.9,0.7-1.4,0.9c-10.3,1.5-19.9,5.3-27.1,13c-2.3,3.2-5.9,5.4-8.9,7.9
	c-3.7,2.5-7.6,4.6-11.8,6.2l-6.6,1.5c-3.5,0-7.2,0.4-10.5-0.7c-0.2-0.2-0.4-0.6-0.1-0.8c1.1-0.8,2.6-0.7,3.8-1.4
	c4.2-1.5,8.3-3.3,12.2-5.4c3.7-2.2,7.1-4.7,10.3-7.5c3.9-3.8,8.3-6.9,13.1-9.4l5.2-2.3c7-1.9,14.2-2.7,21.4-2.3L112.2,28.2z"/>
<path id="Path_479" class="st0" d="M303.3,31.5l0.5,1.4c0.1,6.1,0.5,12.3,0.6,18.6c-0.1,0.9-0.4,2-1.5,2.1c-1.5,0.6-3.2,0.4-4.6-0.3
	c-1.9-1.4-0.7-4-1.3-6.1c-0.2-1.1-1.1-2-2.3-2c-0.7-0.1-1.4,0.2-1.9,0.7c-1.9,2,0.8,6.4-2.4,7.5c-2.3-0.2-5.2,0.2-6.3-2.2l-0.2-7.1
	c-0.1-3.2-0.2-7-0.4-10.4c1.2-1.8,3.4-2.2,5.3-2.8c1-0.1,2.3-0.2,2.7,0.8c0.5,1.9,0.1,3.9,0.5,5.8c0.2,0.8,0.8,1.5,1.5,1.8
	c1,0.3,2,0.2,2.9-0.3c1.8-2.2-0.8-6.1,2.4-7.3C299.8,31,302,30.2,303.3,31.5z"/>
<path id="Path_480" class="st0" d="M282.5,31.9c0.6,1.7-0.6,3.2-1.2,4.7c-0.7,1.1-2.3,0.5-2.7,1.6c-0.2,3.9-0.1,7.7,0,11.8
	c0.2,1-0.1,2-0.8,2.7c-1.5,1.2-3.6,0.3-5.3-0.1c-0.8-0.6-1.8-1.2-2.1-2.2c-0.6-3.4-0.2-6.9-0.4-10.2c-0.6-0.7,0.3-2-0.9-2.4
	c-1.5-0.5-3.7-0.5-4.1-2.5c-0.3-1.2-0.3-2.4,0-3.6c1.7-1.4,4-0.2,6-0.6c3.3,0,6.9-0.2,10.3,0C281.9,31.1,282.4,31.4,282.5,31.9z"/>
<path id="Path_481" class="st0" d="M320.1,31.8c1,1.4,1.4,3.2,1.3,4.9c-1.4,1.1-3.2,0.4-4.9,0.7c-0.7,0.2-1.9-0.2-2.3,0.6
	c0.2,0.7,1.1,0.3,1.7,0.6c1.2,0.2,2.8-0.4,3.6,0.6c1,1.5,1.9,3.2,1.2,5l-0.8,0.5c-2,0.4-5-0.7-6.1,1.4c0,0.6,0.1,1.3,0.8,1.4
	c2,0.1,4.2-0.2,6,0.5c1.2,1,1.7,2.6,1.4,4.1c-0.7,0.8-1.9,0.7-3,0.9c-0.7-0.2-1.6,0-2.3-0.5c-2.2,0.5-4.4,0.7-6.6,0.6
	c-1,0-1.9-0.2-2.3-1.1c-0.7-2.4-0.1-5.2-0.5-7.7c-0.1-3.6-0.4-7.2-0.7-10.5c0-0.8,0.2-1.5,0.7-2.1c1.5-0.8,3.2-0.1,4.8-0.5
	c2.4,0.2,4.6-0.4,7,0L320.1,31.8z"/>
<path id="Path_482" class="st0" d="M107.7,56.1c-2.3,2.4-5.4,3.6-7.9,5.8c-2.8,2.1-6.1,3.3-8.9,5.3c-2.5,1.7-5.3,2.8-7.9,4.5
	c-4.9,1.6-9.2,4.4-14.3,5.3c-2.9,0.4-6.2,0.7-8.8-0.3c-1.4-1-3.1-1.5-3.8-3.2c1.1-0.3,1.6,0.6,2.6,0.6c3,0.5,6.1,0.5,9.1,0
	c5.9-1.5,11.7-3.6,17.2-6.1c3.5-2,7.2-3.4,10.6-5.5c3-1.5,5.9-3.1,8.8-4.8C105.6,57.2,106.6,56.5,107.7,56.1z"/>
<path id="Path_483" class="st2" d="M206.5,73.5c0.9,4.4-0.7,8.8-2.2,12.6c-1.9,3.1-2.8,6.6-4.7,9.7c-6.3,11.2-13.1,22.5-23.5,31.4
	c-2.3,1.4-4.5,3.5-7.6,2.7c-1.3-0.7-2-2.1-1.9-3.6c0.1-0.9,0-1.8,0.6-2.4c3.9-3.6,6.1-8.9,4.8-14.3c0.2-1.2,1.5-1.3,2-2.4
	c1.1-1.3,1.3-3.3,3-4.1c2.2-1.1,5-0.6,7.3-1.2c1.7-0.6,4.1-0.8,4.8-2.8c0-0.9,0-2,1-2.4c0.7-0.3,1.4-0.5,2.1-0.7
	c0.9-0.8,2.2-1.5,2.3-2.8c0.2-0.7,0-1.5-0.6-2c-1.1-0.7-2.8-0.5-4.1-0.8c-0.6-0.4-0.2-1.3-0.2-1.8c1-3.9,3.5-7.1,5.7-10.5
	c2-2.7,4.1-5.8,7.4-7C204.6,71,205.7,72.3,206.5,73.5z"/>
<path id="Path_484" class="st4" d="M225.5,99c2.1-1.2,4-3.6,6.6-2.4c1.4,0.6,2.6,1.8,3.2,3.2c1.1,0.6,1.7-0.7,2.6-1.1
	c1.5-0.7,3.1,0.2,4.4,1.1c0.6,0.5,1.4,1.1,1.5,1.8l-0.2,1.3c-1.5,3.6-4.1,6.7-5,10.7c0,0.3-0.1,0.6,0.2,0.9c1.2,0,1.7-1.3,2.6-1.9
	c1.9-2.2,2.6-4.9,3.7-7.5c1.3-2.9,2.8-5.8,4.4-8.6c1.6-1.2,3.6,0,5.1,0.5c0.8,0.4,1.7,0.9,1.8,1.9c-0.2,1.8-1.4,3.2-2.1,4.9
	c-1.9,3.3-3,6.9-4.5,10.4c-0.1,1.1-0.7,2.3,0,3.2c0.7-0.4,1.2-1.1,1.5-1.8c2-7.4,5.1-15,11.7-19.7c2-1.7,5.3-1.3,7.5-0.3
	c1.7-0.2,2.3-2.8,4.3-2.3c1.9,0.5,3.5,1.9,4.2,3.7c0.4,0.4,0.6-0.2,0.8-0.3c1.3-2,2.4-5.4,5.5-4.9c1.2,0,2.5-0.2,3.4,0.6
	c0.6,0.8,0.2,1.8-0.2,2.6c-1.8,3.9-3.4,7.9-4.7,12c0.1,0.2,0,0.3,0.2,0.5c1.4-1.2,2.5-2.8,3.2-4.5c2-4.1,4.5-8.1,6.6-12.2
	c2.2-2,4.1,1.1,5.8,1.9c0.3,0.3,0.3,0.9,0.8,1.1c1.4-0.4,1.9-2.1,3.1-2.9c1.9-1.7,3.8-3.9,6.6-3.3c1.8,0.9,2.1,3,2.4,4.8
	c-0.1,3.4-2.6,5.8-4.2,8.5c-1,1.5-1.7,3.2-2.2,4.9c-0.4,0.4-0.4,0.9-0.2,1.4c1.5,0.5,2.2-1.5,3.1-2.2c2.6-3.5,3-7.9,5.7-11.3
	c1.9-2.8,3.6-5.6,6.5-7.6c1-0.5,1.9-1.4,3.1-1.4s2.1,0.8,3.1,1.4c1.4-0.5,2.3-1.7,3.9-1.6c1.9,0,3.6,0.6,4.5,2.3h0.2
	c1.2-1.9,1.5-4.2,2.6-6.2c2.6-6.6,5.7-13.7,11.8-18.5c1.7-0.9,4.1-1.1,5.6,0.2c3,2.1,1.6,6,1.4,9.1c-0.8,3.4-2.4,6.5-3.6,9.7
	c-2.7,5.8-5.8,11.5-10.3,16.5c-0.9,1.5-2.9,2.9-2.1,4.8c0.5,0.7,1.2,1.2,2.1,1.2c3.4-1.1,4.9-4.8,6.7-7.5c1-2.1,1.9-4.4,2.6-6.6
	c0.2-0.6,0.9-0.4,1.2-0.2c1.9,1.1,2.4,3.1,2.9,4.9c0,1.7-0.9,3-1.5,4.5l-1.6,2.8c-2.5,4.4-5.9,8.8-10.9,10.1c-2,0.7-4.3,0.3-5.9-1.1
	c-0.6-0.6-1.1-1.7-2-1.8c-1.9,0.1-2.9,2-4.6,2.5c-1.6,0.7-3.4,0.9-5.1,0.6c-1.2-0.1-2.1-1.9-3.4-1c-1.3,1.5-2.8,2.9-4.5,3.9
	c-1.3,0.2-2.8,0.7-4-0.2c-1.2-0.6-1.6-2-2.6-2.9l-0.6,0.2c-2.5,1.9-5.4,4.3-9,3.2c-2-0.8-2.3-3.2-2.9-4.9c-0.2-0.2-0.4-0.4-0.6-0.2
	c-1.9,2-2.4,4.8-3.9,7.1c-0.6,0.9-1.7,1.2-2.7,0.8c-0.9-0.4-1.6-1.1-2.1-1.9c-0.5-0.6-0.6-1.8-1.5-1.8c-1.1,0.6-1.7,1.9-2.8,2.5
	c-2.2,1.7-4.8,3.3-7.9,2.7c-1.3-0.3-1.5-1.8-2.1-2.7c-0.3-3.6,0.1-7.2,1.2-10.7h-0.1c-2.1,2.8-2.8,6.4-4.2,9.6
	c-1.9,5.7-4,11.2-6.2,16.7c-1,1.7-2,3.3-3.2,4.9c-1.9,1.8-3.9,3.7-6.6,3.8c-2.6-0.8-4.8-2.4-6.3-4.7c-1.9-3.2-1.1-7.5,0.5-10.6
	c1.8-1.1,4.4-1.6,6.3-0.6c0.8,0.3,0.7,1.4,0.6,2c-0.5,1.9-1.4,3.7-1.3,5.8c0.1,0.2,0.2,0.6,0.6,0.6l0.7-0.2c2.3-2.5,3.9-5.5,4.9-8.8
	c0.2-0.6,0-1.3-0.6-1.5c0,0,0,0,0,0c-2.4,0.6-4.9,0.2-6.9-1.1l-0.6,0.1l-3.3,2.7l-3.8,0.9c-1.6-0.7-3-1.8-4.1-3.1
	c-1.6-0.4-2.1,1.8-3.6,2.5c-1.4,1.3-3.8,1.1-5.4,0.4c-2.6-1.5-2.6-4.6-3.2-7.2c-0.2-0.3-0.6-0.1-0.8,0.2c-2.8,3.6-5,7.8-8.3,11.1
	c-0.6,0.6-1.5,0.9-2.3,0.8c-1.5-0.6-3.6-1.2-3.9-3.2c0.1-2.5,2.7-3.8,3.6-5.8c2.9-3.6,5.1-7.7,6.3-12.2c0.2-1.4,0.2-3-1.1-3.7
	c-0.4-0.4-0.8-0.6-1.3-0.8L225.5,99z M352.1,67.8c-1.1-0.2-1.6,0.7-2.4,1.3c-1.5,2.3-2.9,4.8-4.1,7.3c-1.6,4.5-3.7,8.8-4.1,13.9
	c0.9,0,1.1-1,1.8-1.5c3.8-5.7,6.8-11.9,8.8-18.4C352.1,69.6,352.5,68.6,352.1,67.8z M288.9,78.1c-2.3,0.5-3.2,3-4,4.9
	c-0.7,1.1-1.7,2.7-0.7,4c1.5,1.3,3.7,2.4,5.9,1.5c2.3-2.3,3.8-5.3,4.2-8.6C293.3,77.8,290.8,78,288.9,78.1z M255.7,81.3
	c-0.9,0.2-1.5,1.2-1.9,2c-1,2.4-3,4.6-2.6,7.5c1,1.7,2.8,2.7,4.7,2.8c1.6,0.1,1.9-1.7,2.8-2.6c0.7-2.2,2.4-4,2.4-6.5
	C260,82.5,258,81.3,255.7,81.3L255.7,81.3z M334.9,88.7c-2.5,3.6-4.6,7.6-6.2,11.7c-0.3,0.7-0.3,1.5-0.2,2.2
	c1.5,0.6,2.7-0.5,3.6-1.5c1.6-0.7,1-2.8,1.5-4.1C333.8,94.2,334.9,91.5,334.9,88.7L334.9,88.7L334.9,88.7z M322.7,93.6
	c-1.9,3.1-3.5,6.5-4.5,10c0,0.4-0.4,1.2,0.2,1.3c0.8-0.4,1.5-1.1,2-1.9c1.7-3.2,3.6-6.5,4.4-10.2C324.5,91.1,323.3,93.1,322.7,93.6z
	 M264.2,104.1c-1.6,2.4-3.5,4.7-4.3,7.4c-0.2,1.1-0.8,2.4-0.2,3.4c0.6,0.1,1.2-0.1,1.5-0.6c2.4-3.1,4.6-6.2,4.9-10.1
	C265.9,103,264.6,103.5,264.2,104.1z"/>
<path id="Path_485" class="st5" d="M391.6,39.2c0.9-1.4,1.1-3.2,0.4-4.8c-1.1-2.5-4.1-3.6-6.5-2.5c-2.5,1.1-3.6,4-2.5,6.5
	c0.7,1.5,2,2.5,3.6,2.8C388.5,41.7,390.5,40.8,391.6,39.2z"/>
<path id="Path_486" class="st0" d="M70.8,106.1c0.4,0.9,1,1.8,1.6,2.6c0.4-0.1,0.8-0.2,1.1,0.1c1.1,2.1,1.6,4.5,1.5,6.9
	c0.3,1.1,1.1,2,1.1,3.2l-0.6,0.2c-3.9-1.1-8-0.6-11.5,1.3l-3.1,2.2c-0.6,0.1-0.7-0.4-0.7-0.8c-0.2-1.1,0.6-2.1,0.2-3.2
	c-1.2-2.9-1.5-7.1,0.1-10c1.2-2.2,3.5-3.6,6-3.8C68.1,104.6,69.6,105.1,70.8,106.1z"/>
<path id="Path_487" class="st3" d="M69.5,108.5c0.1,1-1.2,1.4-1.5,2.2c-1.5,1.7,0.5,5.3-2.4,5.9c-0.8,0.3-1.6,0.9-2.5,0.7
	c-1.6-1.7-1-4.5-0.2-6.5c1-1.6,2.3-3.2,4.3-3.1C68,108,69,107.8,69.5,108.5z"/>
<path id="Path_488" class="st0" d="M180.8,114.4c0.2,1.1-0.5,1.9-0.9,2.7c-1.7,2.4-3.6,4.6-5.8,6.5c-0.9,0.5-1.9,1-2.9,0.5
	c-0.6-0.2-1.1-0.8-1.1-1.5c-0.3-1.3,0.6-2.2,1.2-3.1c2.4-2.2,4.5-5.3,7.8-6C179.9,113.5,180.7,113.7,180.8,114.4z"/>
<path id="Path_489" class="st0" d="M55.3,116.4c0,0.4-0.3,0.5-0.6,0.6l-5.3-1.1c-0.4-0.2-0.6-0.7-0.4-1.1c0-0.1,0.1-0.2,0.2-0.2
	c0.7-0.7,1.8-0.9,2.7-0.6C52.9,114.7,54.4,115.2,55.3,116.4z"/>
<path id="Path_490" class="st0" d="M101.2,118.8c0.5,3.3-1.1,6.6-3.9,8.4c-1.9,1.3-4.4,1.4-6.5,0.3c-0.4-0.3-1.1-0.6-0.9-1.2
	c0.7-0.5,1.9-0.1,2.8-0.4c2.3-0.6,4.8-2.4,5.4-4.7c0.6-1.1,0.2-2.8,1.7-3.3C100.4,117.9,101,118.3,101.2,118.8z"/>
<path id="Path_491" class="st0" d="M56,119l-0.2,0.5c-1.7,1.1-2.8,2.8-4.9,3.2c-0.4-0.1-0.8-0.4-0.8-0.8c0.3-1.7,2.3-2.1,3.5-2.8
	C54.3,118.8,55.6,117.9,56,119z"/>
<path id="Path_492" class="st0" d="M354.2,236c1.1,2.4,0.6,5.6,0.6,8.3c-0.3,1.1-1.2,1.9-2.3,2.1l-9.2,0.8c-0.5,0.2-0.9,0.6-1.1,1.1
	c-0.1,0.7,0.6,1.1,1.1,1.5c3.6,0.2,6.9-0.7,10.6-0.5c0.8,0,1.5,0.3,2.1,0.7c1,1.1,1.4,2.5,1.1,3.9c-0.1,1.7,0.8,4.4-1.4,5.1
	c-3.8,0.5-8,0.1-11.8,1c-0.2,0.2-0.3,0.5-0.2,0.8c0.8,1,2.3,0.8,3.5,0.7l6.6-0.1c0.9-0.1,1.3,0.6,1.9,1c1.1,2.1,0.6,4.7,0.8,7.1
	c-0.3,1.2-1.2,2.3-2.3,2.9c-1.1,0-1.9,0.5-3,0.6c-3.6,0.2-7.3,0.2-10.9-0.1c-2.8-0.5-5.2-2.4-6.2-5.1c-2-4.7-1.9-10.2-2.4-15.6
	c-0.2-3.1-0.4-6.5-0.7-9.5c-0.2-2.4,0.2-5.1,2.4-6.3c4.7-1.9,10.5-1.5,15.7-1.6C351,235.1,352.9,234.7,354.2,236z"/>
<path id="Path_493" class="st0" d="M328.7,241.2c0.9,3,1.2,6,0.9,9.1c-0.2,2.4-2.9,2.3-4.6,2.9c-0.9,0.2-1.5-0.2-2.2-0.2
	c-0.4-0.3-1.1-0.2-1.4-0.7c-0.6-0.1-0.9-0.6-1.4-1c0.1-0.6-0.6-0.7-0.6-1.4c0.1-1.5-1.3-2.1-2.3-3c-0.7-0.2-1.4,0.2-1.7,0.9
	c-0.4,1.3,0.1,2.7,1.1,3.6c1.2,1.3,3.2,1.7,4.4,2.5c0.6-0.1,0.5,0.6,1.2,0.3v0.1c0.3,0.2,1.1-0.2,1.2,0.3c2.8,0.4,5.3,2.1,6.7,4.6
	c1.1,3.9,0.8,8.5-1.6,11.6c-2.5,2.4-5.7,3.9-9.2,4.2c-0.7,0.3-1.7-0.2-2.5,0.2c-4.4,0.2-8.7-0.2-12-2.4c-1.1-1.1-1.5-2.7-1.1-4.2
	c0.6-2.5,1.1-6.2,4.3-6.6c3.4,0.4,6.5,2.3,10,1.5c0.5-0.4,0.3-1,0-1.5c-2.1-1.2-4.7-1.3-7.1-1.9c-0.9-0.2-1.9-0.4-2.8-0.7
	c-1.3-1.1-2.8-2.2-3.2-4c-1.4-4.5-0.8-9.4,0.4-13.8c1.5-4.2,6.2-6.3,10.5-6.6C320.8,235.3,326.8,235.7,328.7,241.2z"/>
<path id="Path_494" class="st0" d="M235.8,236.5c0.7,1.5,0.2,3.2,0.6,4.9c0.1,2.7,0.2,5.6,0.4,8.3c0,2.6,0.6,4.9,0.5,7.5
	c0.3,3.2,0.4,6.6,0.7,9.6c-0.1,2.4,0.2,4.9,0.2,7.4c-0.2,0.8-0.7,1.4-1.4,1.8c-3.1,0.5-6.3,0-9.1-1.4c-0.7-0.5-0.7-1.3-0.9-2
	c-0.3-2.7-0.1-5.7-1-8c-0.6-0.7-1.6-0.5-2.4-0.3c-0.8,0.4-1.4,1.1-1.5,2c0,2.5,0.4,4.9,0.4,7.5c-0.1,0.7-0.5,1.4-1.1,1.8
	c-3.3,1.4-7.2,0.3-9.9-1.4c-1-0.9-0.6-2.3-0.8-3.6c-0.5-10-1.5-20.1-1.9-30.1c0-1.5,1.5-2.3,2.7-3c2.1-1.2,4.4-1.8,6.8-1.9
	c0.7,0,1.5,0.3,1.9,0.9l0.2,0.6c0.5,4.6,0.2,9.1,0.8,13.6c0.2,0.5,0.7,0.9,1.2,1c1-0.1,2.1,0,2.8-0.8l0.3-1
	c-0.1-3.2-0.2-6.6-0.3-9.6c1.4-3.5,5.3-3.9,8.6-4.6C234.4,235.5,235.3,235.9,235.8,236.5z"/>
<path id="Path_495" class="st0" d="M298.9,236.5c1.5,1,1.3,3.1,1.5,4.7c0.3,5.9,0.8,12.1,1.3,17.9c0.1,4.5-1.5,8.8-4.5,12.1
	c-0.2,0.7-0.9,0.8-1.4,1.3c-1.4,0.4-2.6,1.5-3.9,1.9c-3.2,0.6-6.6,1.4-9.8,0.5c-0.9-0.5-1.9-0.9-2.8-1.4c-1.2-0.3-2.2-1.5-3.1-2.3
	c-1.1-1.6-2-3.4-2.6-5.3c-0.2-3.8-1.1-7.5-1-11.3l-0.6-8.9c-0.1-2.6-0.1-5.1,0-7.7c0.4-1.1,1.7-1.1,2.7-1.5c2.7-0.2,5.3-0.6,7.8,0.5
	c2.2,0.6,1.4,3.5,1.7,5.2c0.4,4.2,0.4,8.8,0.9,13c0.2,1.9,0.3,4.1,1.3,5.8c0.2,0.3,0.6,0.4,0.9,0.3c0,0,0.1,0,0.1-0.1
	c0.4-0.8,0.6-1.7,0.5-2.6c0-6-0.5-11.4-0.8-17.3c-0.1-1.5-0.4-3.7,1.5-4.5c2.1-0.7,4.4-0.9,6.6-0.6
	C296.3,235.8,297.6,236.3,298.9,236.5z"/>
<path id="Path_496" class="st0" d="M341.9,183.4l0.4,0.7c0.4,2.5,0.6,5,0.7,7.5c0.1,0.2,0.2,0.6,0.5,0.6c1.1-0.2,1.4-1.2,2.2-1.8
	c2.3-2,4.2-4.4,6.6-6.5c1.6-0.7,2.7,1,4.1,1.5c1.4,1.5,3.5,2.4,4.3,4.5c0,1.9-2.1,2.8-2.8,4.2c-2.4,2.3-4.5,4.8-6.5,7.4
	c-0.2,1.5,1.3,2.2,1.8,3.3c2.8,3.5,5.6,6.7,8.3,10.2c0.2,0.6,0.2,1.2-0.2,1.7c-1.7,2.1-3.7,4-5.8,5.7c-0.6,0.6-1.4,1-2.3,1.1
	l-0.6-0.2c-2.4-2.9-4.9-5.9-7.5-8.5c-0.3-0.1-0.4,0.2-0.5,0.4c-0.5,2.5,0.2,4.9-0.2,7.5c-0.8,0.8-2.3,0.4-3.2,0.6
	c-2.8-0.5-5.8-0.7-8.2-2c-0.7-0.5-0.4-1.5-1.1-1.9c-1.4,1.1-2.9,2-4.5,2.8c-1.3,0.8-2.8,1.1-4.3,1c-1.6,0-1.5-1.8-2.2-2.8
	c-0.6-1-0.6-2.4-1.9-3c-2.7-0.4-5.5,0.1-8.3,0c-1.2-0.3-2.5-0.1-3.6,0.5c-1.1,1.6-1.9,3.4-2.3,5.3c-0.2,0.7-1,0.7-1.6,0.8
	c-2.7-0.5-5.3-1.8-7.4-3.6c-0.7-0.7-1.1-1.6-1.2-2.6c-1,1.5-1.9,3.5-3.3,4.8c-2.5,3-6.8,2.7-10.5,2.9c-2-0.1-4-0.7-5.8-1.7
	c-2.1-1-2.8-3.3-4.1-5c-1.3-4.5-1.9-8.6-1-13.2c0.4-3.3,1.2-6.6,2.4-9.7c1.9-3.7,3.2-8.1,7.2-10.2c3.5-1.9,8.3-1.5,12.3-0.9
	c5.2,2.1,5.6,7.9,5.8,13c-0.4,2.1-0.4,4.8-1.1,7c-0.2,0.4-0.6,0.8-1.1,0.9c-3.2,0.1-5.8-1.1-8.7-1.7c-1.6-1.1-0.8-3.7-0.9-5.4
	c-0.2-1.1,0.1-2.5-1.1-3.1c-1.5,0.6-2,2.5-2.6,3.9c-1.1,3.5-1.6,7.2-1.5,10.9c0.3,1.2,0.3,2.8,1.7,3.4c1.9,0.4,2.4-1.9,3.2-2.9
	c0.6-1.1,0.8-2.6,2.1-3.1c1.9,0.2,3.7,1.2,5.6,1.9c1.4,0.7,2.8,1.9,2.6,3.6c0.3,0.2,0.4-0.2,0.5-0.3c3.2-8.7,6.3-17.3,9.6-25.9
	c1.6-2.3,4.6-2,7.1-2.6c2-0.1,4.1-0.3,5.5,1.1c2.6,5.4,4.5,11,7.1,16.4c2.3,4.8,3.3,10.1,6.2,14.7l0.3-0.4c0-8.8-0.6-17.8-0.9-26.6
	c0-1.1-0.3-2.5,0.6-3.2c2.7-1.6,5.5-2.8,8.5-3.6C340.9,182.6,341.6,182.8,341.9,183.4z"/>
<path id="Path_497" class="st0" d="M264.4,239c3.6,3.6,4.6,8.4,5.4,13.2c0.7,6,0.9,12.6-1.8,17.8c-4.3,5.5-11.1,7.7-18.1,6.2
	c-2.9-0.7-5.4-2.4-7.1-4.8c-1.3-2-2.7-4.1-2.9-6.6c-0.4-3-0.5-6.1-0.2-9.2c0.2-3.9,0.6-7.9,2.5-11.2c1.1-2.3,3.6-3.7,5.8-4.9
	c4.5-1.5,9.7-2.9,14.7-1.5L264.4,239z"/>
<path id="Path_498" class="st0" d="M250.9,190.3c2.1,2.7,3.2,5.8,5.8,8.1l0.2-0.3c0.3-3.3-0.5-6.6-0.1-9.8c0.6-2.2,3.1-2.8,4.9-3.4
	c1.5-0.2,3.9-1.4,4.9,0.5l0.6,1.9c0.2,5.9,0.6,11.6,1,17.4c0.1,1-0.3,2.2,0.3,3c0.4,4.5,0.1,8.6,0.3,13.5c-0.6,1.7-2.6,1.9-4.1,2.3
	c-1.7,0.7-3.5,1-5.3,0.7c-2.4-2.9-4.1-6.2-6.7-9c-0.5-0.8-1.1-1.5-1.8-2.1c-1,0.4-0.6,1.9-0.7,2.8c0.2,2.4,0.3,4.8,0.2,7.2
	c-1.1,2-3.8,1.1-5.8,1.2c-1.6-0.1-3.1-0.5-4.5-1.2c-0.7-0.5-1.1-1.3-1.1-2.1c-0.2-5.3-0.8-10.5-1-15.6c-0.1-5.3-0.9-10.6-1-16.2
	c-0.2-2.1,2.2-2.5,3.6-3.2c1.6-0.7,3.3-1.9,5.3-1.3C248.5,185.6,249.4,188.3,250.9,190.3z"/>
<path id="Path_499" class="st0" d="M202.1,190.4c1.6,3.2,2.2,7.8,0.3,11c-0.9,2.5-2.4,4.6-4.5,6.2c-1.8,1.8-3.9,3.2-6.3,4.1
	c-1-0.6-1.2,0.7-1.8,1.1c-0.9,0.7-2.7,0.9-2.6,2.4c0.1,3,0.2,5.8,0.3,8.7c0,0.7-0.4,1.3-1,1.5c-3.4,0.2-6.4-1.2-9.1-3
	c-1.5-1.4-0.6-3.9-1-5.6l-0.5-14.6c-0.2-0.6-0.2-1.4-0.9-1.4c-1.5,0.6-2.5,2-4,2.8c-0.8-0.1-1.1-1.1-1.2-1.7c-0.3-3.1-1-6.8,0.2-9.7
	c0.8-1.5,2.5-2.1,4-3c5.8-2.8,11.9-5.8,18.9-4.5C196.6,185.3,200.2,187,202.1,190.4z"/>
<path id="Path_500" class="st0" d="M385.8,185.3c1.1,2.5,1.7,5.2,1.9,7.9c0.1,0.7-0.1,1.4-0.6,1.9c-2.3,1.4-5.4,0.7-8.2,1.1
	c-1.6,0.3-3.9-0.6-4.5,1.5c0.2,0.4,0.6,0.6,1,0.7c3.1,0.3,6.2-0.6,9.1,0.5c0.6,0.7,0.3,1.8,1.1,2.4c0.5,1.8,0.9,3.6,1,5.4
	c-0.1,0.6-0.4,1.2-1,1.5l-1.3,0.5c-2.8,0-5.6,0.2-8.3,0.7c-0.6,0.3-0.4,1-0.6,1.5c0.2,1.9,2.3,1.3,3.7,1.6c2.1,0.2,4.1-0.3,6.2-0.1
	c1.9,0.2,1.5,2.3,1.9,3.7c0.1,2,1,4.6-0.4,6.3l-1.2,0.7l-7.7,0.2c-2.8-0.2-5.3,0.5-7.9,0.2c-1.9-0.3-3.7-1.1-5.1-2.4
	c-0.6-1.4-1.8-2.4-1.6-4.1c-0.3-4.5-0.2-8.7-0.6-13.1c-0.2-4.5-0.2-9.5-0.6-14c0.4-1.7,1.1-3.6,2.9-4.2c1.8-0.7,4-0.3,5.8-0.7
	c4,0,8.1-0.2,12-0.4C383.9,184.6,384.9,184.9,385.8,185.3z"/>
<path id="Path_501" class="st0" d="M224.8,186.7c0.6,1.6,1.3,3.2,1.8,4.9c0.9,1.7,1.4,3.6,2.3,5.3c1.9,4.6,3.9,9.2,5.4,13.9
	c1.1,2.7,1.9,5.4,3.2,8c0.3,1.6-1.5,2.3-2.2,3.2c-2.4,1.1-5,3.5-7.8,1.7c-1-1.5-1.4-3.3-2.4-4.9c-0.8-1.1-2.3-0.6-3.5-0.7l-8,0.2
	c-1,0-2,0.6-2.3,1.6c-1.1,1.5-0.4,5.2-3.4,4.5c-2.8-0.7-5.4-2.3-7.4-4.4c-0.7-1.2,0-2.6,0.4-3.8c3.1-9.1,6.7-17.9,10-26.9
	c0.6-1.2,1.1-2.6,2.4-3.2c2.2-0.7,4.5-1.1,6.8-1.2C222,184.9,224,185.1,224.8,186.7z"/>
<path id="Path_502" class="st3" d="M256.3,248.3c2,4.7,1.7,10.5,1.1,15.7c-0.3,1.2-0.5,2.8-1.8,3.3c-1.6,0-2-1.9-2.4-3
	c-1.4-4.9-1.9-10.9-0.2-15.8c0.4-0.6,0.7-1.6,1.6-1.7C255.4,246.7,255.9,247.6,256.3,248.3z"/>
<path id="Path_503" class="st3" d="M191.2,196.4c0.9,1.9-0.6,3.6-1.7,5c-0.7,0.6-1.4,1.6-2.4,1.5c-0.4-0.9-0.5-1.8-0.5-2.8
	c-0.1-1.4-0.1-2.8,0.2-4.2C188.1,195.3,190.3,194.7,191.2,196.4z"/>
<path id="Path_504" class="st3" d="M58.6,168c0.8,0,1.9-0.3,2.6,0.2c1.6,1.9,4.2,2.7,6.6,2.2c3.7-0.9,7.9-4.3,11.7-1.3
	c3.5,2.6,5.9,6.4,6.6,10.7c1.9,9.2,1.5,19.7,0.2,29.1c-0.9,3.6-0.9,7.5-1.5,11.2c-0.9,8.7-1.1,17.4-0.4,26.1
	c0.3,5.3,1.1,10.6,2.2,15.8l4.2,15.4c0.2,0.9-0.8,1.2-1.5,1.5c-6.8,0.6-13.3,1.5-20.4,1.1c-12.3-0.2-24.5,0.9-36.6,3.2
	c-1.4,0-2.8,0.8-4.2,0.3c-0.8-1.2-0.1-2.8-0.1-4.2c1.2-8.1,1.8-16.2,1.8-24.4c0.2-3.2,0-6.6,0.2-9.7l0.8-1.2c3.1-2.3,6-4.8,9-7.1
	c1.1-0.9,0.4-2.6,1.5-3.4l3-0.6c1.3-1,3.1-1.1,4.8-1.2c1.3-0.7,2.5-1.6,3.6-2.5c1.9-0.2,3.7-1.1,4.9-2.5c1.1-1.1,0.9-2.8,2.4-3.7
	c2.8-1.4,4.5-4.5,4.1-7.6c0-1.2-1.2-2.4-0.2-3.6c2.4-1,4.2-3.2,4.6-5.8c0.1-1.3-0.2-2.5-0.8-3.6c-0.7-0.7-2-0.2-2.9-0.2
	c-3.1,0.9-6.4,0.4-9.1-1.4c-5.1-3.8-10.9-6.8-17.7-5.9c-2.2,0.7-4.3,1.8-6.2,3.2c-4.1,3.2-5.8,7.7-9.6,10.8
	c-3.5,3.1-6.9,6.3-10.9,8.3c-0.6,0.2-0.6-0.5-0.8-0.8c-0.3-2.6,0.6-4.5,0.6-7c0.5-6.6,1.5-13.1,2.8-19.5c1.1-4.1,1.9-8.9,6.4-11.2
	c4.1-2.3,9-2.8,13.9-3.6c0.9-0.4,1.9-1,2.9-0.5c0.6,1-0.2,2.3,1.1,2.9c0.7,0.6,1.8,0.6,2.5,0c1.3-2.7,1.5-5.8,2.5-8.7
	c0.2-0.4,0.6-0.6,1-0.7C49,169.1,53.9,169,58.6,168z"/>
<path id="Path_505" class="st3" d="M313.7,201.5c0.5,0.3,0.2,1.3,0.8,1.5c0.3,0.6,0.1,1.6,0.6,2c0,0.2-0.1,0.4,0.1,0.4l0.1,1.5h-4.5
	v-0.1c-1.1,0.4-0.4-0.8-0.6-1.2c0.2-0.6,0.4-1,0.6-1.5v-0.3h0.1l0.1-0.7c0.3-0.2,0.2-0.7,0.6-1c0.2-0.2,0.6-0.5,0.5-0.9
	C312.6,201.4,313.6,200.9,313.7,201.5z"/>
<path id="Path_506" class="st3" d="M218.7,202.1c0.2,0.6,0.6,0.7,0.7,1.4c0.6,0.5,0.5,1.7,1.1,2.2c0,0.7,0.6,2.6-0.6,2.4
	c-1.3,0.3-2.6,0.2-3.9-0.2v-2.4c0.1-0.2,0.4-0.3,0.3-0.7c0.4-0.3,0.3-0.9,0.6-1.3v-0.2c0.3-0.2,0.2-0.7,0.4-1.1L218.7,202.1
	L218.7,202.1z"/>
<path id="Path_507" class="st0" d="M56.6,179.9c1,1.1,0.5,2.8,0.4,4.1c-0.4,1-1.2,1.8-2.2,2.1c-1.3-0.2-2.8,0.5-3.8-0.4
	c-1-0.8-1.7-1.9-1.9-3.2c0-1.7,0.9-3.3,2.5-4.1C53.4,177.8,55.5,178.4,56.6,179.9z"/>
<path id="Path_508" class="st3" d="M56.2,180.7c0.3,0.8,0.2,1.6-0.2,2.3c-0.6,0.7-1.6,1.1-2.5,0.9c-0.8-0.2-1.4-0.7-1.7-1.4
	c-0.2-0.7-0.1-1.5,0.3-2.1c0.5-0.5,1.2-0.9,1.9-1C55,179.3,55.8,179.8,56.2,180.7z"/>
<path id="Path_509" class="st3" d="M294.6,216.3l-0.1,0.4L294.6,216.3z"/>
<path id="Path_510" class="st3" d="M95.8,189.8c4.9,2.8,10.1,5.4,15.3,7.6c0.6,0.5,0.4,1.3,0.2,1.9c-4.9,9.9-6.2,21.5-12.1,31
	c-1.4,2.7-4.2,4.4-7.2,4.5c-1.3-0.2-2.8-0.6-3.4-1.9c-0.3-3.3-0.1-6.7,0.6-10c0.1-0.5,0.3-1.1,0.9-1.2c0.7-0.2,1.9,1.2,2-0.2
	c-0.6-3.2-1.1-6.5-1.5-9.7c0.2-6.8,0.6-14.1,2.9-20.3C93.9,190.5,94.6,188.9,95.8,189.8z"/>
<path id="Path_511" class="st3" d="M26.2,213.2c0.1,2.7,1.1,4.9,1.7,7.4c1.8,4.9,3.5,9.6,5.5,14.3c0.2,1-0.6,1.7-1.2,2.3
	c-4.4,4.2-9.2,8-14.3,11.3c-1.1,0.6-2.7,1.1-3.9,0.4c-4.4-2.6-7.5-7-8.3-12.1l-0.2-0.6c-0.6-3.1-0.1-6.4,1.3-9.2
	c1.3-2,2.9-3.8,4.7-5.3c4.3-3.5,8.5-6.6,12.7-10.5C25.7,210.2,25.8,212.3,26.2,213.2z"/>
<path id="Path_512" class="st3" d="M35.7,225.9c0.1,0.6,0.2,1.3,0.1,1.9c-0.7,0-0.8-0.9-1.2-1.4c-0.1-0.6-0.6-1.4-0.2-2
	C35.1,224.3,35.5,225.1,35.7,225.9z"/>
<path id="Path_513" class="st0" d="M60.7,240.4c-0.4,0.6-1.2,0.5-1.9,0.8c-1.2,0.7-1.9,2-1.8,3.4c0,0.8,0.5,1.6,1.2,2
	c1.1,0.6,2.4,0.6,3.6,0.1c0.6-0.3,1-1,1.6-1.2c0.1,0.7-0.1,1.5-0.5,2.1c-1,1.1-2.3,1.8-3.8,1.9c-2.1,0-3.9-1.3-4.7-3.2
	c-0.7-1.8-0.2-3.9,1.2-5.3c1.3-0.9,3-1.6,4.5-0.9C60.5,240.1,60.6,240.2,60.7,240.4z"/>
<path id="Path_514" class="st0" d="M74.4,245.8c-1.9,7.1-7.1,13.3-11.9,19c-1.3,1.2-2.4,2.6-4.1,2.9c-1.3-0.1-2.6,0.2-3.7,1
	c-3.2,1.6-6.5,2.9-10,3.7c-1,0-2.3,0.4-2.9-0.6c-0.3-0.5-0.4-1.2-0.1-1.7c1.8-1.6,4.1-2.2,5.9-3.6c7.4-5.1,14.4-10.7,21-16.8
	c0.4,0,0.4-0.6,0.7-0.7c1.7-1.2,2.9-2.7,4.7-3.7C74.3,245.1,74.5,245.5,74.4,245.8z"/>
<path id="Path_515" class="st3" d="M75.6,283.3c2,0.8,1.3,3.5,1.5,5.1c-0.1,2.7-0.3,5.5-2.4,7.4c-1.4,1.2-2.8,2.5-4.5,2.7
	c-5.3,0.5-10.9,0.6-16,1.5c-5.8,0.7-10.8,2.9-16,4.5c-1.4,0-2-1.3-2.4-2.3c-1.1-3.2-3.1-6.2-3.9-9.6c0.6-1.2,1.9-1.6,2.9-2.1
	l5.1-1.5c2.9-0.3,5.9-0.9,9-0.6l5.3,0.6c2.6,0.5,5.2,1.1,7.8,1.9c0.6,0.2,1.5,0.7,2,0.1c-0.2-1.3-1.4-2.2-1.9-3.3
	c-0.2-1.4-1.4-2.7-0.7-4.1c0.3-0.2,0.7-0.3,1.1-0.4L75.6,283.3z"/>
<path id="Path_516" class="st3" d="M50.3,284.4c0.2,0.3-0.1,0.6-0.4,0.8c-2.2,0.5-4.4,0.8-6.6,1c-4.9,0.4-9.2,2.2-13.5,3.6
	c-0.8,0.3-1.8,0.1-2.4-0.5c-0.2-0.1-0.2-0.4-0.1-0.5c0,0,0-0.1,0.1-0.1c2.9-1.5,6.2-1.9,9.4-3c3.8-1.1,7.9-1.5,11.8-2.3
	C49.3,283.5,49.9,283.9,50.3,284.4z"/>
<path id="Path_517" class="st3" d="M24.4,293.3c0.1,0.2,0,0.4-0.2,0.5c0,0,0,0-0.1,0c-0.6-0.4-1.5-0.5-1.9-1.1
	c0.3-0.6,1.1-0.2,1.6-0.1L24.4,293.3z"/>
<path id="Path_518" class="st3" d="M28.5,294.1c0.9,1,1.4,2.1,1.7,3.4c0.2,0.6-0.3,1.1-0.8,1.5c-0.4,0.2-0.8,0.1-1.2-0.1
	c-0.7-1.6-1.5-3.4-1.1-5.3C27.7,293.1,28,294,28.5,294.1z"/>
<path id="Path_519" class="st3" d="M14.3,294.4c-0.2,0.9-1.2,1-1.9,1.1c-0.3,0-0.5-0.2-0.7-0.4c-0.1-0.5,0.1-1.2,0.6-1.2
	C13,293.6,13.8,293.8,14.3,294.4z"/>
<path id="Path_520" class="st3" d="M52,305.4c0.7,1.8-1.1,4.2,1,5.5c1,0.3,2,0.8,2.8,1.5c0.2,0.4-0.2,0.6-0.6,0.6
	c-2.5-0.1-5,0-7.5,0.2c-1.9-0.2-1.8-2.3-2.1-3.6c0.1-1.1-0.6-2.8,0.7-3.4c1.6-0.6,3.2-1.5,5.1-1.4L52,305.4z"/>
<path id="Path_521" class="st3" d="M22.5,308.5c-0.2,1.6,0.4,3.6-0.9,4.7c-1.4,0.8-2.8,1.7-4.4,1.5c-0.4-0.2-0.4-1-0.2-1.4
	c0.9-1.5,3.4-0.5,3.7-2.6c0.4-1.2,0.9-2.3,1.5-3.4C22.6,307.5,22.4,308,22.5,308.5z"/>
<path id="Path_522" class="st3" d="M49.1,316.1c-0.3,1.4-1.3,2.5-2.7,2.9c-0.6-1,0.2-2,0.7-2.8C47.6,315.7,48.8,315.3,49.1,316.1z"
	/>
<path id="Path_523" class="st3" d="M58.5,317.9c0.2,0.5,0.5,1.1,0.2,1.6c-0.2,0.2-0.5,0.2-0.8,0.1c-0.7-0.4-1.1-1.2-1.2-2
	c0.1-0.3,0.3-0.5,0.6-0.6C57.8,316.9,58.3,317.5,58.5,317.9z"/>
<path id="Path_524" class="st6" d="M220.5,77.4c-0.5,3.2-2,6-1.5,9.4c-1.8,3-2.4,6.5-4.1,9.5c-1.1,3-3,5.6-4.2,8.6
	c-2,3.5-3.7,7.1-6.4,10.3c-0.6,1.4-1.6,2.7-2.9,3.6c-0.4-0.1-0.2-0.6-0.2-0.9c3.7-5.1,6.9-10.6,9.6-16.3c2.1-3.7,3.1-7.9,4.8-11.9
	l0.9-3.4c0.9-2.8,1.1-5.7,1.8-8.7c0.4-0.8,1.2-1.1,1.9-1.6C220.9,76.1,220.6,77,220.5,77.4z"/>
<path id="Path_593" class="st0" d="M389.1,34.6c0.2,0.4,0.1,1-0.2,1.3c-0.2,0.4-1,0.2-0.7,0.8l1.4,1.7c0.1,0.2,0.4,0.1,0.3,0.3
	c-0.4,0.1-1.1,0.2-1.3-0.2l-1.5-1.9c0-0.1-0.1-0.1-0.2,0c0,0,0,0,0,0l-0.1,0.2c-0.1,0.6,0,1.1,0.1,1.7c0.1,0.2,0.5,0.2,0.3,0.4
	c-0.6,0.1-1.2,0.1-1.8,0l-0.1-0.1c0.2-0.2,0.4-0.2,0.5-0.4c0.1-1.3,0-2.7-0.1-4c0-0.3-0.4-0.2-0.5-0.4c0.9-0.1,1.8-0.1,2.7-0.1
	C388.3,33.9,388.8,34.2,389.1,34.6z M386.8,34.2c-0.1,0-0.2,0.1-0.2,0.2V36l0.1,0.2c0.5,0.2,1,0,1.3-0.4c0.3-0.3,0.3-0.8,0.1-1.2
	C387.9,34.2,387.4,34.2,386.8,34.2L386.8,34.2z"/>
</svg>
