<svg xmlns="http://www.w3.org/2000/svg" viewBox="1287.5 1121.5 150.376 141.346">
  <defs>
    <style>
      .cls-1 {
        fill: none;
      }

      .cls-1, .cls-2, .cls-3 {
        stroke: #2d2d2f;
        stroke-linecap: round;
        stroke-linejoin: round;
        stroke-miterlimit: 10;
        stroke-width: 3px;
      }

      .cls-2 {
        fill: #fff;
      }

      .cls-3 {
        fill: #d4b55c;
      }
    </style>
  </defs>
  <g id="Group_210" data-name="Group 210" transform="translate(1289 1123)">
    <g id="Group_208" data-name="Group 208">
      <g id="Group_207" data-name="Group 207" transform="translate(64.805 3.6)">
        <path id="Path_431" data-name="Path 431" class="cls-1" d="M111.3,12.1a13.752,13.752,0,0,1,0,27.5" transform="translate(-111.3 -12.1)"/>
        <path id="Path_432" data-name="Path 432" class="cls-1" d="M111.3,19.5a9.325,9.325,0,0,1,0,18.651" transform="translate(-111.3 -15.132)"/>
      </g>
      <path id="Path_433" data-name="Path 433" class="cls-2" d="M91.744,65.691A45.4,45.4,0,0,0,63.826,30.1V22.723A3.426,3.426,0,0,0,60.4,19.3H33.253a3.426,3.426,0,0,0-3.423,3.423V30.1A45.357,45.357,0,0,0,1.972,65.691,9.573,9.573,0,0,0,1.5,68.583v71.77a9.471,9.471,0,0,0,9.443,9.443h71.77a9.471,9.471,0,0,0,9.443-9.443V68.583A7.813,7.813,0,0,0,91.744,65.691Z" transform="translate(-1.5 -11.45)"/>
      <path id="Path_434" data-name="Path 434" class="cls-3" d="M81.232,17.037H49.715A2.746,2.746,0,0,1,47,14.322V8.715A2.746,2.746,0,0,1,49.715,6H81.232a2.746,2.746,0,0,1,2.715,2.715v5.548A2.721,2.721,0,0,1,81.232,17.037Z" transform="translate(-20.145 -6)"/>
    </g>
    <g id="Group_209" data-name="Group 209" transform="translate(35.295 61.972)">
      <path id="Path_435" data-name="Path 435" class="cls-3" d="M140.44,111H153.6a4.862,4.862,0,0,1,4.84,4.84h0a4.862,4.862,0,0,1-4.84,4.84H140.44a4.862,4.862,0,0,1-4.84-4.84h0A4.862,4.862,0,0,1,140.44,111Z" transform="translate(-91.747 -111)"/>
      <path id="Path_436" data-name="Path 436" class="cls-2" d="M171.617,162.557H75.471a5.391,5.391,0,0,1-5.371-5.371v-2.715a5.391,5.391,0,0,1,5.371-5.371h96.146a5.391,5.391,0,0,1,5.371,5.371v2.715A5.391,5.391,0,0,1,171.617,162.557Z" transform="translate(-64.906 -126.613)"/>
      <path id="Path_437" data-name="Path 437" class="cls-2" d="M162.858,185.416H66.771a5.391,5.391,0,0,1-5.371-5.371v-2.774a5.391,5.391,0,0,1,5.371-5.371h96.146a5.391,5.391,0,0,1,5.371,5.371v2.715A5.454,5.454,0,0,1,162.858,185.416Z" transform="translate(-61.341 -135.956)"/>
      <path id="Path_438" data-name="Path 438" class="cls-2" d="M171.617,208.257H75.471a5.391,5.391,0,0,1-5.371-5.371v-2.715a5.391,5.391,0,0,1,5.371-5.371h96.146a5.391,5.391,0,0,1,5.371,5.371v2.715A5.391,5.391,0,0,1,171.617,208.257Z" transform="translate(-64.906 -145.34)"/>
      <path id="Path_439" data-name="Path 439" class="cls-2" d="M162.858,231.057H66.771a5.391,5.391,0,0,1-5.371-5.371v-2.715a5.391,5.391,0,0,1,5.371-5.371h96.146a5.391,5.391,0,0,1,5.371,5.371v2.715A5.4,5.4,0,0,1,162.858,231.057Z" transform="translate(-61.341 -154.683)"/>
      <path id="Path_440" data-name="Path 440" class="cls-2" d="M163.938,126.2H65.609c-2.361,0-4.309,3.01-4.309,6.728s1.948,6.728,4.309,6.728H129.47c0,.236-.059.413-.059.649v25.615c0,3.305,1.771,6.079,3.9,6.079h0c2.125,0,3.9-2.715,3.9-6.079V140.306a2.213,2.213,0,0,0-.059-.649h7.791v39.78c0,3.364,1.771,6.079,3.9,6.079s3.9-2.715,3.9-6.079v-39.78h11.214c2.361,0,4.309-3.01,4.309-6.728C168.247,129.269,166.3,126.2,163.938,126.2Z" transform="translate(-61.3 -117.229)"/>
    </g>
    <path id="Path_441" data-name="Path 441" class="cls-2" d="M11.5,198.5v9.384a9.471,9.471,0,0,0,9.443,9.443H24.6" transform="translate(-5.598 -84.884)"/>
  </g>
</svg>
