<svg xmlns="http://www.w3.org/2000/svg" viewBox="160.5 2085.5 234 33">
  <defs>
    <style>
      .cls-1 {
        fill: none;
        stroke: #d5b65c;
        stroke-linecap: round;
        stroke-miterlimit: 10;
        stroke-width: 3px;
      }
    </style>
  </defs>
  <g id="Group_238" data-name="Group 238" transform="translate(-12 -17)">
    <g id="Group_116" data-name="Group 116" transform="translate(406.5 2135.5) rotate(180)">
      <path id="Path_350" data-name="Path 350" class="cls-1" d="M1.5,1.5c11.5,0,11.5,10,23.1,10,11.5,0,11.5-10,23.1-10,11.5,0,11.5,10,23.1,10,11.5,0,11.5-10,23.1-10s11.6,10,23.1,10c11.6,0,11.6-10,23.1-10,11.6,0,11.6,10,23.1,10,11.6,0,11.6-10,23.1-10,11.6,0,11.6,10,23.1,10,11.6,0,11.6-10,23.1-10"/>
    </g>
    <g id="Group_117" data-name="Group 117" transform="translate(406.5 2125.5) rotate(180)">
      <path id="Path_351" data-name="Path 351" class="cls-1" d="M1.5,1.5c11.5,0,11.5,10,23.1,10,11.5,0,11.5-10,23.1-10,11.5,0,11.5,10,23.1,10,11.5,0,11.5-10,23.1-10s11.6,10,23.1,10c11.6,0,11.6-10,23.1-10,11.6,0,11.6,10,23.1,10,11.6,0,11.6-10,23.1-10,11.6,0,11.6,10,23.1,10,11.6,0,11.6-10,23.1-10"/>
    </g>
    <g id="Group_118" data-name="Group 118" transform="translate(406.5 2115.5) rotate(180)">
      <path id="Path_352" data-name="Path 352" class="cls-1" d="M1.5,1.5c11.5,0,11.5,10,23.1,10,11.5,0,11.5-10,23.1-10,11.5,0,11.5,10,23.1,10,11.5,0,11.5-10,23.1-10s11.6,10,23.1,10c11.6,0,11.6-10,23.1-10,11.6,0,11.6,10,23.1,10,11.6,0,11.6-10,23.1-10,11.6,0,11.6,10,23.1,10,11.6,0,11.6-10,23.1-10"/>
    </g>
  </g>
</svg>
